<?xml version="1.0" encoding="UTF-8" standalone="no"?>
<!-- Created with Inkscape (http://www.inkscape.org/) -->

<svg
   version="1.1"
   id="svg1"
   width="350"
   height="350"
   viewBox="0 0 350 350"
   xmlns="http://www.w3.org/2000/svg"
   xmlns:svg="http://www.w3.org/2000/svg">

    <path
       style="fill:#000000"
       d="m 20.812958,331.21675 c -5.84491,-2.54488 -9.53405,-9.98454 -7.99393,-16.12087 0.35275,-1.40549 2.16665,-4.22094 4.03088,-6.25657 l 3.38951,-3.70115 17.57917,-0.31446 c 11.383081,-0.20362 17.579182,-0.68363 17.579182,-1.36186 0,-0.57608 -1.114286,-10.10957 -2.47619,-21.18555 -1.361905,-11.07597 -4.066512,-33.18813 -6.010232,-49.13813 -6.82297,-55.9885 -7.94695,-64.58317 -8.5799,-65.60731 -0.39408,-0.63764 -2.08746,-0.0494 -4.42555,1.53723 -4.42434,3.00244 -8.64938,3.25981 -13.43704,0.81853 -6.70237,-3.41762 -9.55983,-10.74963 -6.78116,-17.39992 0.98819,-2.36507 6.63166,-8.17957 16.84799,-17.35859 8.44915,-7.59126 17.16208,-15.43481 19.362082,-17.43012 3.793142,-3.44021 26.738441,-24.005901 87.92642,-78.80776 29.1411,-26.099679 31.34347,-27.560353 38.32358,-25.417287 2.79015,0.856645 22.81898,18.315167 78.25,68.208139 40.975,36.881238 75.2875,68.489838 76.25,70.241338 2.19709,3.99813 2.22232,7.91814 0.08,12.43268 -3.48105,7.33576 -13.54546,9.66195 -20.72457,4.79008 -2.5465,-1.7281 -3.79227,-2.11162 -4.06032,-1.25 -0.21269,0.68365 -1.31762,9.11799 -2.4554,18.74299 -1.13778,9.625 -3.64843,30.39506 -5.57922,46.15569 -1.93075,15.76063 -3.51049,29.35257 -3.51049,30.20431 0,1.21509 1.44648,1.6123 6.71609,1.84431 6.53506,0.28772 6.73647,0.37655 7.47223,3.29569 0.6494,2.5765 5.81168,34.32391 5.81168,35.74116 0,0.27741 2.27104,0.7226 5.04675,0.98931 14.33155,1.37708 17.52118,20.87385 4.31747,26.39071 -4.84531,2.0245 -298.296222,1.98324 -302.949032,-0.0426 z m 300.584812,-9.57859 c 2.40751,-2.40751 2.44663,-2.91734 0.4433,-5.77749 l -1.55671,-2.22251 H 172.66981 c -135.953582,0 -147.759022,0.13074 -149.443302,1.65499 -2.35835,2.13428 -2.31172,3.86203 0.17126,6.34501 1.98186,1.98186 3.33333,2 149.000002,2 145.66667,0 147.01814,-0.0181 149,-2 z m -201,-32.5 v -15.5 h -29.5 c -21.380449,0 -29.5,0.31314 -29.5,1.13771 0,1.96916 3.14237,27.3015 3.549235,28.61229 0.298085,0.96034 6.76787,1.25 27.91938,1.25 h 27.531385 z m 75.46213,12.25 c 0.30402,-1.7875 1.6863,-10.43079 3.07172,-19.2073 1.40111,-8.87586 3.06196,-16.30229 3.74256,-16.73469 0.67297,-0.42756 3.81109,-0.78428 6.97359,-0.7927 l 5.75,-0.0153 -0.0245,-17.25 c -0.0134,-9.4875 -0.47968,-19.2247 -1.03609,-21.63822 -5.08072,-22.03861 -27.22452,-37.16882 -48.62683,-33.22529 -12.94145,2.38456 -23.6499,9.6092 -30.02029,20.25372 -5.90384,9.86503 -6.29229,13.23385 -6.29229,54.56989 v 37.2899 h 32.95469 32.95468 z m 108.53032,1 c -0.008,-2.32585 -1.62271,-13.53745 -2.52068,-17.5 l -0.50987,-2.25 H 254.96158 208.5635 l -1.0117,4.75 c -0.55643,2.6125 -1.32685,7.5625 -1.71203,11 l -0.70033,6.25 h 49.62916 49.62917 z m -3.36216,-24 c -0.33164,-1.2375 -0.60913,-2.8125 -0.61664,-3.5 -0.0107,-0.98148 -9.7876,-1.25 -45.51365,-1.25 -44.18667,0 -45.5,0.0554 -45.5,1.91821 0,1.05502 -0.27314,2.63002 -0.60699,3.5 -0.54816,1.42848 3.92164,1.58179 46.11663,1.58179 h 46.72362 z m -180.8549,-30 0.2754,-15.75 H 88.423163 c -24.351353,0 -32.025393,0.28933 -32.025393,1.20742 0,1.84601 3.009723,25.98617 3.560454,28.55743 l 0.485102,2.26484 29.727222,-0.26484 29.727222,-0.26485 z m 164.66021,14 c 0.51079,-2.4261 3.5644,-27.03591 3.5644,-28.72632 0,-0.67691 -10.83985,-1.02368 -32,-1.02368 h -32 v 15.33333 c 0,8.43334 0.3,15.63334 0.66667,16 0.36666,0.36667 13.85809,0.66667 29.98094,0.66667 h 29.31429 z M 123.34912,217.06304 c 2.53192,-7.17198 8.58892,-16.08418 14.37032,-21.14433 2.02308,-1.7707 3.67833,-3.4582 3.67833,-3.75 0,-0.2918 -20.25,-0.53055 -45,-0.53055 -34.487028,0 -45,0.28208 -45,1.20742 0,1.83746 3.008372,25.97951 3.556728,28.54258 l 0.481376,2.25 h 32.796017 32.796019 z m 166.48425,4.32512 c 0.51079,-2.4261 3.5644,-27.03591 3.5644,-28.72632 0,-0.68307 -14.97271,-1.02368 -45,-1.02368 -24.75,0 -45,0.23875 -45,0.53055 0,0.2918 1.65525,1.9793 3.67833,3.75 5.7814,5.06015 11.8384,13.97235 14.37032,21.14433 l 2.32121,6.57512 h 32.79602 32.79602 z m 5.01801,-41 c 0.27044,-1.2375 0.9975,-6.74862 1.61568,-12.24694 l 1.12396,-9.99694 -3.76324,-3.25306 -3.76323,-3.25306 H 264.0599 c -22.79428,0 -26.23041,-0.20431 -27.83339,-1.65499 -2.26919,-2.05358 -2.3248,-4.13939 -0.17375,-6.51627 1.4995,-1.65693 3.5899,-1.83149 22.25,-1.85805 l 20.59501,-0.0293 -3.5,-3.11267 c -1.925,-1.71197 -5.52611,-4.96128 -8.00247,-7.22069 -2.47636,-2.25941 -8.61052,-7.82051 -13.63147,-12.35801 l -9.129,-8.24999 -72.36853,0.009 -72.36853,0.009 -17.094035,15.2409 -17.094036,15.24091 20.926571,0.5 c 19.23866,0.45967 21.0409,0.65657 22.34404,2.44113 1.86197,2.54985 1.79588,3.18045 -0.58254,5.55887 -1.89862,1.89862 -3.33333,2 -28.303833,2 H 53.790104 l -3.318052,3.42336 -3.318054,3.42336 1.20208,10.32664 c 0.66115,5.67965 1.421323,11.11414 1.689277,12.07664 0.460585,1.65443 7.144861,1.75 122.400755,1.75 h 121.91356 z m -163.95361,-6.42521 c -3.22923,-0.8534 -8.37699,-5.18624 -10.08438,-8.48797 -2.21852,-4.29013 -2.00938,-11.1653 0.46732,-15.36299 l 2.04961,-3.47383 -2.04961,-3.47383 c -1.23204,-2.08816 -2.04961,-5.23479 -2.04961,-7.88851 0,-17.14265 22.73464,-22.49018 30.18492,-7.09995 l 2.16016,4.46229 h 20.80239 20.80238 l 0.60812,-2.42293 c 1.64594,-6.55796 10.79124,-12.32071 17.56184,-11.06629 5.4618,1.01194 9.70003,4.14132 11.97591,8.84265 2.61816,5.4084 2.61372,8.89391 -0.0183,14.33085 l -2.0892,4.31572 2.0892,4.31572 c 2.63198,5.43694 2.63642,8.92245 0.0183,14.33085 -2.78195,5.74674 -7.79986,8.782 -14.51847,8.782 -6.31115,0 -11.83575,-3.69951 -14.30295,-9.57788 l -1.60763,-3.83035 -20.70321,-0.0102 -20.7032,-0.0102 -1.91976,4.33993 c -2.90525,6.5678 -11.73821,10.81776 -18.67383,8.98486 z m 8.7671,-11.07479 c 0.86739,-0.9625 1.89758,-3.1 2.2893,-4.75 1.56941,-6.61066 1.06439,-6.5 29.66433,-6.5 15.21662,0 26.67553,0.4093 27.76373,0.99168 1.01914,0.54543 2.15873,2.45793 2.53242,4.25 1.15618,5.54456 3.13462,7.75832 6.93359,7.75832 2.48673,0 3.96303,-0.71022 5.47695,-2.63486 2.79014,-3.54709 2.6466,-4.48885 -1.42742,-9.36514 -1.925,-2.30407 -3.5,-5.00407 -3.5,-6 0,-0.99593 1.575,-3.69593 3.5,-6 4.07402,-4.87629 4.21756,-5.81805 1.42742,-9.36514 -1.51392,-1.92464 -2.99022,-2.63486 -5.47695,-2.63486 -3.79897,0 -5.77741,2.21376 -6.93359,7.75832 -0.37369,1.79207 -1.51328,3.70457 -2.53242,4.25 -1.0882,0.58238 -12.54711,0.99168 -27.76373,0.99168 -28.60363,0 -28.21378,0.0851 -29.77713,-6.5 -1.0223,-4.30613 -3.30725,-6.5 -6.76985,-6.5 -6.84637,0 -8.78727,6.52324 -3.67375,12.34722 1.65,1.87924 3,4.52816 3,5.88648 0,1.37981 -1.32389,3.855 -3,5.60888 -3.38031,3.53718 -3.89743,7.50828 -1.34501,10.32868 2.11329,2.33516 7.53861,2.3796 9.61211,0.0787 z M 30.012908,160.40384 c 1.58668,-1.22888 14.16377,-12.36638 27.949103,-24.75 34.141758,-30.67018 87.317369,-78.28863 101.358199,-90.765674 6.34406,-5.6375 12.25448,-10.25 13.13427,-10.25 0.87979,0 33.20327,28.4625 71.82995,63.25 38.62669,34.787494 71.33873,63.677784 72.69343,64.200624 1.98619,0.76658 2.88245,0.53128 4.62904,-1.21531 1.89782,-1.89783 2.00538,-2.44879 0.86888,-4.45064 C 321.2167,154.20507 177.02554,24.128615 173.86644,22.360695 c -1.95237,-1.092601 -3.77239,0.08559 -13.01074,8.422523 -7.69495,6.94412 -43.77675,39.255019 -68.400936,61.252364 -19.296705,17.238188 -17.702537,15.809928 -46.203926,41.395378 -13.00582,11.67521 -23.9167,21.93065 -24.24642,22.78987 -0.97106,2.53054 1.45908,5.94702 4.50849,6.33838 0.33833,0.0434 1.91333,-0.9265 3.5,-2.15537 z M 233.31597,100.88817 c -0.045,-0.4125 -2.63248,-2.961211 -5.75,-5.663797 -3.11751,-2.702586 -9.5659,-8.456515 -14.32976,-12.786509 -14.506,-13.184895 -9.66245,-11.799698 -41.25944,-11.799698 H 144.37122 L 129.1345,84.293269 c -8.3802,7.510306 -16.12423,14.485306 -17.20895,15.5 -1.91843,1.794571 -0.28855,1.844901 59.75,1.844901 33.94722,0 61.68541,-0.3375 61.64042,-0.75 z m -51.4182,-46.788577 c -3.85,-3.566668 -7.675,-6.879114 -8.5,-7.360991 -1.11468,-0.651079 -3.55503,1.018129 -9.5,6.498053 l -8,7.374195 16.5,-0.0132 16.5,-0.0132 z"
        />
 
</svg>
