<svg
   version="1.1"
   id="svg1"
   width="543"
   height="543"
   viewBox="0 0 543 543"
   xmlns="http://www.w3.org/2000/svg"
   xmlns:svg="http://www.w3.org/2000/svg">

    <path
       style="fill:#000000"
       d="m 177.48141,474.26024 c -2.90911,-0.77229 -7.31217,-4.10121 -8.75203,-6.61696 -0.95683,-1.67178 -1.36461,-20.84359 -1.74797,-82.18046 l -0.5,-80 -63.54472,-0.5 c -59.07113,-0.4648 -63.73852,-0.62703 -66.29773,-2.30433 -8.71787,-5.7137 -8.71796,-18.67734 -1.8e-4,-24.39134 2.55906,-1.67731 7.22635,-1.83953 66.29774,-2.30433 l 63.54489,-0.5 0.5,-9.05226 c 0.55445,-10.03805 2.01944,-13.37219 7.00942,-15.95261 l 2.99058,-1.54649 v -64.44864 -64.44864 l -3.04422,-1.57423 c -9.23815,-4.77723 -9.23379,-20.179285 0.007,-24.957916 2.67234,-1.381917 8.69158,-1.543195 48.46446,-1.298549 l 45.41323,0.27934 2.67478,2.5 c 7.83611,7.324075 7.05915,18.329995 -1.64481,23.299135 l -3.85504,2.20086 v 64 64 l 3.85504,2.20086 c 5.37466,3.06843 7.12956,7.30217 7.12956,17.20027 v 8.09887 h 53.49697 53.49697 l 15.92197,-31.83188 c 11.8751,-23.74121 16.64153,-32.3194 18.75303,-33.75 3.98899,-2.70265 13.17926,-2.64137 17.00773,0.11341 2.02978,1.46053 7.32041,10.94631 18.82333,33.74907 l 16,31.71754 10.5,0.002 c 12.07312,0.003 16.05398,1.3945 19.73007,6.89726 6.03059,9.02725 -1.01077,22.08732 -11.91439,22.09838 l -3.68432,0.004 6.86097,14.25 c 9.18378,19.07441 10.43909,23.95685 10.47711,40.75 0.0258,11.41165 -0.33171,14.66019 -2.3113,21 -13.15468,42.12889 -57.14513,64.63107 -98.0512,50.15557 -4.36585,-1.54495 -10.5502,-4.34948 -13.74302,-6.23228 -7.52995,-4.44043 -21.91982,-18.8142 -26.28721,-26.25781 -8.165,-13.91613 -12.13734,-32.61548 -10.0959,-47.52534 1.54343,-11.27259 3.07019,-15.84999 10.5065,-31.49986 3.58198,-7.53812 6.51269,-13.91605 6.51269,-14.17296 0,-0.2569 -20.7,-0.4671 -46,-0.4671 h -46 v 79.09887 c 0,87.58038 0.26571,83.93757 -6.41996,88.01628 -4.93557,3.01103 -8.82831,3.31096 -13.89331,1.07047 -8.85567,-3.91728 -8.1215,4.6731 -8.68673,-101.64118 l -0.5,-94.04444 -25.23492,-0.26714 -25.23493,-0.26714 -0.26507,93.94411 c -0.26274,93.11589 -0.28326,93.96845 -2.32687,96.70535 -4.06438,5.44321 -10.47739,8.13193 -15.93821,6.68224 z m 262.40904,-70.19198 c 22.07024,-6.86903 36.15051,-29.77758 32.12994,-52.2753 -1.10486,-6.18241 -4.63878,-13.95949 -23.5391,-51.80234 l -22.23907,-44.5278 -21.56053,43.10574 c -11.85829,23.70816 -22.32381,45.73132 -23.25671,48.94037 -1.26575,4.35402 -1.57349,8.18005 -1.21272,15.07724 0.41725,7.97714 0.97744,10.28282 4.09141,16.83996 5.8632,12.34622 18.0412,22.5317 30.43189,25.45273 6.76074,1.5938 18.66173,1.2103 25.15489,-0.8106 z M 409.86648,385.5832 c -8.03856,-2.87267 -12.73866,-8.16025 -14.90162,-16.76424 -1.32858,-5.28492 -0.33902,-8.29112 3.08715,-9.37855 2.67463,-0.84889 5.9294,2.02035 5.9294,5.22706 0,5.80174 6.37797,12.28338 12.09501,12.29161 2.80022,0.004 5.90499,2.7263 5.90499,5.17749 0,2.23421 -3.30286,4.83268 -6.07874,4.78236 -1.33169,-0.0241 -4.04798,-0.62522 -6.03619,-1.33573 z M 235.98141,202.96282 v -45 h -14.5 -14.5 v 45 45 h 14.5 14.5 z m -0.21107,-73.25 0.28894,-8.75 h -14.53894 -14.53893 v 9.02746 9.02745 l 14.25,-0.27745 14.25,-0.27746 z M 75.64563,209.71139 c -1.21696,-0.89307 -1.7226,-2.30025 -1.5,-4.17449 0.29525,-2.48597 3.53244,-4.92468 26.8148,-20.20069 14.56346,-9.55536 26.77611,-17.37339 27.13922,-17.37339 0.3631,0 1.71348,0.8529 3.00083,1.89533 4.56649,3.69772 2.37289,5.77107 -25.11907,23.74204 -14.025,9.16787 -26.175,16.84651 -27,17.06363 -0.825,0.21713 -2.3261,-0.21147 -3.33578,-0.95243 z m 261.20495,-16.04422 c -24.69607,-16.19826 -26.38909,-17.49951 -26.68317,-20.50855 -0.25339,-2.5928 0.13262,-3.38145 2,-4.08618 2.99206,-1.12918 2.00908,-1.67508 31.07883,17.25967 26.00113,16.93598 27.83445,18.65356 24.1987,22.671 -0.97543,1.07784 -2.32513,1.95971 -2.99935,1.95971 -0.67421,0 -13.09197,-7.78304 -27.59501,-17.29565 z M 45.73141,140.88272 c -2.42473,-1.41228 -2.3046,-6.55272 0.18426,-7.88472 1.22952,-0.65802 14.91641,-1.03518 37.56574,-1.03518 22.64934,0 36.33622,0.37716 37.56574,1.03518 1.23662,0.66182 1.93426,2.09183 1.93426,3.96482 0,1.87299 -0.69764,3.303 -1.93426,3.96482 -2.61223,1.39802 -72.91034,1.35609 -75.31574,-0.0449 z m 274.90499,-0.74864 c -2.15105,-2.37688 -2.09544,-4.46269 0.17375,-6.51627 1.63138,-1.47638 5.76956,-1.65499 38.34501,-1.65499 34.10638,0 36.6255,0.12069 38.17126,1.82874 2.15105,2.37688 2.09544,4.46269 -0.17375,6.51627 -1.63138,1.47638 -5.76956,1.65499 -38.34501,1.65499 -34.10638,0 -36.6255,-0.12069 -38.17126,-1.82874 z M 99.98141,87.932716 C 76.72489,72.549633 74.45389,70.797846 74.16859,68.021436 c -0.25027,-2.43551 0.18661,-3.271796 2.18481,-4.182238 2.865,-1.305382 1.60397,-2.025421 35.87801,20.486091 17.05403,11.201249 20.75,14.039246 20.75,15.933171 0,3.03599 -1.80676,4.72333 -4.95,4.62282 -1.5311,-0.0489 -12.73904,-6.821095 -28.05,-16.948564 z m 210.66667,16.363434 c -0.36667,-0.36666 -0.66667,-1.96175 -0.66667,-3.54465 0,-2.659405 2.02168,-4.209805 26.61704,-20.41237 21.27583,-14.015776 27.09216,-17.415122 28.98477,-16.940109 3.30223,0.828808 4.27659,5.129849 1.73735,7.669086 -1.05782,1.057827 -12.92938,9.115547 -26.38124,17.906044 -22.89402,14.960739 -28.04635,17.566909 -30.29125,15.321999 z"
       />
 
</svg>
