<?xml version="1.0" encoding="UTF-8"?>
<!-- Created with Inkscape (http://www.inkscape.org/) -->
<svg width="300" height="300" version="1.1" viewBox="0 0 300 300" xmlns="http://www.w3.org/2000/svg">
 <path d="m26.923 271.21c-1.1984-0.57936-2.6963-2.3027-3.3288-3.8296-1.4465-3.4921 0.77837-8.4196 4.2176-9.3409 1.2595-0.3374 24.228-0.6196 51.04-0.62711l48.75-0.0136v-71h-18v-18c0-17.226-0.0845-18-1.9648-18-4.0571 0-5.4588-7.5764-2.0352-11 1.938-1.938 3.3333-2 45-2s43.062 0.062 45 2c3.1742 3.1742 2.082 11-1.5352 11-1.2322 0-1.4648 2.8588-1.4648 18v18h-19v71h48.953c34.253 0 49.698 0.33925 51.432 1.1297 5.4285 2.4734 5.4024 10.279-0.0427 12.76-3.3437 1.5235-243.87 1.4471-247.02-0.0785zm132.68-49.311v-35.5h-18v71h18zm25-53.5v-10h-67v20h67zm-159.93-19.635c-1.1399-1.4492-2.0726-3.4135-2.0726-4.3651s0.93266-2.916 2.0726-4.3651c1.9034-2.4198 2.6729-2.6349 9.4274-2.6349 6.8039 0 7.5143 0.20276 9.4839 2.7067 2.3347 2.9681 2.0734 6.4471-0.71684 9.5433-1.2271 1.3617-3.1908 1.75-8.8495 1.75-6.6655 0-7.4454-0.21991-9.345-2.6349zm41.15 1.0782c-1.6484-1.1546-2.2225-2.5606-2.2225-5.4433 0-5.4016 2.5459-7 11.15-7 6.0524 0 6.9066 0.25644 8.7775 2.6349 1.1399 1.4492 2.0726 3.4135 2.0726 4.3651s-0.93266 2.916-2.0726 4.3651c-1.8709 2.3784-2.7251 2.6349-8.7775 2.6349-4.45 0-7.4524-0.52353-8.9274-1.5567zm151.85-1.0782c-1.1399-1.4492-2.0726-3.4135-2.0726-4.3651s0.93266-2.916 2.0726-4.3651c1.8709-2.3784 2.7251-2.6349 8.7775-2.6349 8.604 0 11.15 1.5984 11.15 7s-2.5459 7-11.15 7c-6.0524 0-6.9066-0.25644-8.7775-2.6349zm40.382 0.18031c-2.9986-2.9986-3.1037-5.4504-0.38197-8.9106 1.9034-2.4198 2.6729-2.6349 9.4274-2.6349s7.524 0.21508 9.4274 2.6349c1.1399 1.4492 2.0726 3.4135 2.0726 4.3651s-0.93266 2.916-2.0726 4.3651c-1.885 2.3964-2.7036 2.6349-9.0454 2.6349-6.07 0-7.2907-0.31784-9.4274-2.4546zm-128.41-27.504c-2.7248-2.7248-6.0415-9.4924-6.0415-12.327 0-3.0402 3.907-6.7142 7.1401-6.7142 3.942 0 10.86 9.1526 10.86 14.368 0 5.7633-7.8147 8.8173-11.959 4.6735zm31.959-0.0415c-2.5927-2.5927-2.5367-6.3658 0.16177-10.882 3.4666-5.8019 5.9882-8.118 8.8382-8.118 3.1766 0 7 3.7438 7 6.8543 0 2.7155-3.372 9.5178-6.0415 12.187-2.5313 2.5313-7.4061 2.511-9.9585-0.0415zm-81.022-9.25c-6.759-4.043-8.3355-7.4497-5.3226-11.502 2.9665-3.9899 7.5721-4.0686 13.628-0.23274 5.3397 3.3823 7.1601 6.6883 5.7398 10.424-2.036 5.3552-6.5753 5.7788-14.045 1.3108zm128.72 2.1389c-2.577-1.4991-3.8344-5.3909-2.7032-8.3663 0.51805-1.3626 3.0944-3.8409 5.7252-5.5073 6.0556-3.8359 10.661-3.7572 13.628 0.23274 3.0129 4.0523 1.4364 7.459-5.3226 11.502-5.6816 3.3985-8.3091 3.8947-11.327 2.1389zm-163.11-21.818c-5.4072-3.1831-7.8032-6.4968-6.9202-9.5709 1.7633-6.1388 7.379-7.1282 14.571-2.5671 7.1981 4.5649 8.5133 8.4116 4.3123 12.613-3.1849 3.1849-5.932 3.0759-11.963-0.47454zm196.87 0.47454c-4.201-4.201-2.8858-8.0477 4.3123-12.613 5.2356-3.3203 10.16-3.7867 12.488-1.1829 3.9396 4.4061 2.2392 9.2485-4.6272 13.177-6.4927 3.7148-8.9517 3.8397-12.173 0.61842zm-131.18-4.5754c-3.4489-1.3732-8.3423-9.8199-8.0358-13.871 0.35255-4.6589 4.5791-7.8991 8.5053-6.5206 3.0826 1.0823 9.252 10.429 9.252 14.016 0 4.5816-5.3744 8.106-9.7216 6.3751zm71.738-0.26318c-3.8359-1.9298-4.7305-5.7974-2.4902-10.765 2.3874-5.2944 6.7066-9.9414 9.2399-9.9414 3.374 0 7.2336 3.8121 7.2336 7.1445 0 2.9224-3.8806 10.719-6.2953 12.648-2.2703 1.8138-5.206 2.1628-7.6881 0.9141zm-37.382-10.779c-2.3784-1.8709-2.6349-2.7251-2.6349-8.7775 0-8.604 1.5984-11.15 7-11.15s7 2.5459 7 11.15c0 6.0524-0.25644 6.9066-2.6349 8.7775-1.4492 1.1399-3.4135 2.0726-4.3651 2.0726s-2.916-0.93266-4.3651-2.0726zm-55.397-24.474c-3.1625-2.2151-7.2376-9.6118-7.2376-13.137 0-4.859 5.1082-8.1362 9.5368-6.1184 2.838 1.2931 8.4632 10.411 8.4632 13.718 0 2.6426-4.2203 7.0828-6.732 7.0828-1.0026 0-2.8163-0.69575-4.0303-1.5461zm111.22-0.90844c-3.2034-3.2034-3.0959-5.681 0.5205-12.002 3.083-5.3885 6.7188-7.945 9.7631-6.8648 5.9718 2.119 6.8268 7.4619 2.329 14.554-4.5649 7.1981-8.4116 8.5133-12.613 4.3123zm-55.82-14.618c-2.4198-1.9034-2.6349-2.6729-2.6349-9.4274s0.21508-7.524 2.6349-9.4274c3.3239-2.6146 5.4064-2.6146 8.7303 0 2.4198 1.9034 2.6349 2.6729 2.6349 9.4274s-0.21508 7.524-2.6349 9.4274c-1.4492 1.1399-3.4135 2.0726-4.3651 2.0726s-2.916-0.93266-4.3651-2.0726z"/>
</svg>
