<svg
   version="1.1"
   id="svg1"
   width="135"
   height="135"
   viewBox="0 0 135 135"
   xmlns="http://www.w3.org/2000/svg"
   xmlns:svg="http://www.w3.org/2000/svg">


    <path
       
       d="m 63.163568,108.16171 v -13.5 h 3.5 3.5 v 13.5 13.5 h -3.5 -3.5 z m -17.5,9.78166 c -1.65,-0.85006 -3.133091,-1.65677 -3.295758,-1.7927 -0.162667,-0.13593 2.049955,-5.89926 4.916939,-12.8074 l 5.212698,-12.560265 3.083061,1.566529 c 1.695683,0.861591 3.222789,1.686529 3.393569,1.833195 0.290371,0.249371 -8.256249,21.595291 -9.666367,24.142581 -0.473485,0.85532 -1.438954,0.75413 -3.644142,-0.38194 z m 34.008843,-10.11255 c -2.613667,-6.41801 -4.936047,-12.141749 -5.160843,-12.71942 -0.224797,-0.57767 1.141449,-1.789534 3.036101,-2.693031 l 3.444823,-1.642721 5.165469,12.563102 c 2.841008,6.9097 4.792001,12.8736 4.335538,13.2531 -0.456462,0.3795 -2.008714,1.18906 -3.449448,1.79904 -2.618891,1.10877 -2.620652,1.10625 -7.37164,-10.56007 z m 14.181889,-8.97766 -9.736626,-9.773298 2.809268,-2.69145 2.809269,-2.69145 9.736627,9.773298 9.736622,9.7733 -2.80926,2.69145 -2.80927,2.69145 z m -66.724287,6.27283 -2.382185,-2.53572 9.654257,-9.654256 9.654257,-9.654257 2.737017,2.737017 2.737018,2.737018 -9.413654,9.452959 c -5.177509,5.199129 -9.6816,9.452959 -10.00909,9.452959 -0.32749,0 -1.667419,-1.14107 -2.97762,-2.53572 z M 104.16357,86.17095 c -6.875002,-2.849039 -12.392306,-5.591633 -12.260677,-6.094655 0.131629,-0.503022 0.666271,-2.139321 1.188093,-3.636221 l 0.948768,-2.721636 12.311906,5.058715 c 6.77155,2.782294 12.4802,5.225321 12.68589,5.42895 0.20569,0.203628 -0.24431,1.894537 -1,3.757575 l -1.37398,3.387341 z m -88.906686,1.328602 c -0.606284,-1.739186 -0.987805,-3.264285 -0.847825,-3.389107 0.13998,-0.124822 5.794736,-2.512575 12.566123,-5.306117 l 12.311613,-5.079167 1.366223,3.218274 c 0.751423,1.770051 1.061197,3.503588 0.688387,3.852303 -1.023414,0.95727 -22.566444,9.865972 -23.857902,9.865972 -0.618356,0 -1.620334,-1.422971 -2.226619,-3.162158 z M 11.163568,66.66171 v -4 h 13.500001 13.499999 v 4 4 H 24.663569 11.163568 Z m 84,0 v -4 h 13.500002 13.5 v 4 4 h -13.5 -13.500002 z M 26.165209,54.005845 c -5.774098,-2.44247 -10.858142,-4.800636 -11.297875,-5.240369 -0.619687,-0.619687 0.376123,-4.300327 1.862568,-6.884285 0.125624,-0.218378 24.18807,9.585419 25.166276,10.253533 0.910443,0.621832 -2.482213,6.505136 -3.701848,6.419481 -0.841919,-0.05913 -6.255023,-2.10589 -12.029121,-4.54836 z m 66.234987,1.471808 C 91.73918,53.726422 91.303023,52.22585 91.430958,52.143049 92.456011,51.479624 116.50652,41.698455 116.61637,41.900323 c 1.55222,2.852462 2.46466,6.241717 1.84507,6.8536 -1.06119,1.048013 -22.277854,9.907787 -23.726352,9.907787 -0.623175,0 -1.673876,-1.432826 -2.334892,-3.184057 z m -58.235142,-16.314451 -9.459013,-9.498509 2.736922,-2.736923 2.736923,-2.736922 9.699711,9.699712 9.699712,9.699712 -2.382185,2.535719 c -1.310201,1.394645 -2.65013,2.535719 -2.97762,2.535719 -0.32749,0 -4.851993,-4.274329 -10.05445,-9.498508 z m 51.964958,6.962789 -2.382185,-2.535719 9.699712,-9.699712 9.699711,-9.699712 2.73693,2.736922 2.73692,2.736923 -9.459017,9.498509 c -5.202458,5.224179 -9.726961,9.498508 -10.054451,9.498508 -0.32749,0 -1.667419,-1.141074 -2.97762,-2.535719 z M 51.45849,39.91171 C 51.105221,38.94921 48.875212,33.496744 46.502916,27.795118 44.130619,22.093493 42.407954,17.075303 42.67477,16.643584 c 0.266817,-0.431718 1.786724,-1.238683 3.377573,-1.793256 l 2.892451,-1.008314 5.128508,12.159848 c 2.82068,6.687916 5.119904,12.453327 5.109387,12.812023 -0.01589,0.54189 -5.440778,2.847825 -6.699729,2.847825 -0.210189,0 -0.6712,-0.7875 -1.02447,-1.75 z m 25.741703,0.636344 c -1.354856,-0.538869 -2.621811,-1.138197 -2.815455,-1.331841 -0.337988,-0.337987 9.411349,-24.520355 10.20595,-25.314956 0.212861,-0.212861 1.801736,0.344559 3.530835,1.238711 2.192338,1.133702 2.980677,2.139632 2.604783,3.323736 C 89.151141,23.425632 81.236121,41.12798 80.5102,41.312551 80.044552,41.430946 78.555049,41.086922 77.200193,40.548054 Z M 63.163568,24.66171 v -14 h 3.5 3.5 v 14 14 h -3.5 -3.5 z"
     />

</svg>
