<?xml version="1.0" encoding="UTF-8"?>
<!-- Created with Inkscape (http://www.inkscape.org/) -->
<svg width="460" height="460" version="1.1" viewBox="0 0 460 460" xmlns="http://www.w3.org/2000/svg">
 <path d="m1.71 229.43v-230h460v460h-460zm320 224.01c66.263-1.7187 104.82-4.1312 109.71-6.8635 1.6367-0.91595 1.5748-1.0869-0.70623-1.9516-19.973-7.5718-264.01-9.7624-351.5-3.1553-15.486 1.1695-26.25 2.7486-26.999 3.9611-0.80865 1.3084 2.2023 1.9906 15.408 3.4911 38.881 4.4176 168.86 6.7289 254.09 4.5182zm-197.5-41.944c2.75-1.2658 6.5542-2.3606 8.4539-2.4329 2.744-0.1044 3.9307-0.83708 5.7741-3.565 1.2761-1.8885 3.5974-4.0522 5.1583-4.8081 1.5609-0.75597 3.4445-2.5078 4.1858-3.8928 1.0028-1.8738 1.9493-2.4033 3.6981-2.069 1.6748 0.32016 2.7938-0.22744 3.893-1.9051 1.5357-2.3438 1.5705-2.3129 7.6897 6.8099 3.3809 5.0404 6.7448 9.3563 7.4753 9.591 1.9323 0.62072 9.1219-7.525 16.734-18.959 3.6559-5.4916 7.154-9.7506 7.7875-9.4813 17.626 7.4922 27.756 9.9489 41.15 9.9799 17.398 0.0403 29.201-4.9334 41.653-17.552 4.2092-4.2655 8.7092-8.1571 10-8.6479 1.2908-0.49081 7.2884-3.8889 13.328-7.5514 6.0984-3.6981 11.877-6.5304 12.996-6.3697 2.0954 0.30082 5.1355 5.6024 6.1654 10.752 0.44917 2.2458 0.15017 2.9684-1.4366 3.4721-3.062 0.97182-6.8958 5.2649-7.529 8.4309-1.2193 6.0963 0.94986 8.2759 8.496 8.5369 3.3385 0.11547 3.52 1.4277 1.3271 9.5976-1.9785 7.3711-1.8756 10.654 0.39973 12.75 10.62 9.7828 8.6612 9.5475 22.109 2.6566 16.772-8.5941 31.864-23.15 46.241-44.6 10.509-15.679 9.3238-20.375-7.6014-30.119-4.334-2.495-13.199-1.7235-19.851 1.7278-2.7402 1.4217-6.3351 2.5848-7.9887 2.5848-2.0511 0-3.897 0.9533-5.8089 3-1.5413 1.65-3.7142 3-4.8286 3s-2.8813 1.087-3.9263 2.4156c-1.3428 1.707-2.3174 2.1515-3.3226 1.5153-2.0726-1.3118-2.4481-1.2009-5.9686 1.7613-3.1251 2.6296-3.2326 2.6471-4.6208 0.75-1.2996-1.7761-3.2282-7.7229-4.7649-14.692-1.0536-4.7785-4.8105-3.4502-13.885 4.9091-5.5993 5.1582-11.401 8.9574-12.302 8.0562-0.23771-0.23771 0.45187-2.4947 1.5324-5.0155 1.6647-3.8835 2.5846-4.769 6.0251-5.7998 5.1063-1.5299 5.1642-2.7743 0.65033-13.968-1.8756-4.6514-3.7049-10.028-4.065-11.948-0.65155-3.473-0.62275-3.5063 5.7579-6.6528 3.527-1.7392 10.309-6.1011 15.072-9.6929l8.6588-6.5307 3.6355 1.519c3.9656 1.657 7.7965 1.1683 10.592-1.3511 1.5986-1.4406 1.9107-1.3526 3.8226 1.0779 4.0372 5.1324 11.2 2.445 14.329-5.3764 1.8583-4.6443 1.268-8.5531-1.5166-10.043-1.3253-0.70927-1.7245-1.689-1.3295-3.2627 0.87743-3.496-1.1286-7.528-4.1187-8.2784-1.7456-0.43811-3.1265-1.8207-4.0672-4.0719-2.4897-5.9587-8.5765-6.0907-14.038-0.3045-2.4753 2.6226-2.809 2.7114-4.9398 1.3153-1.3726-0.89934-3.1434-1.2249-4.4342-0.81519-2.5664 0.81453-5.8731 7.7862-6.8084 14.354-0.61948 4.3501-0.88881 4.6862-4.4652 5.5717-4.8816 1.2086-16.103-0.64183-22.427-3.6985-4.0119-1.939-4.8769-2.923-6.3679-7.2438-2.4679-7.152-2.413-7.3053 2.8697-8.0208 14.877-2.0149 24.021-4.0191 34.656-7.5954 20.232-6.8034 35.815-16.407 49.657-30.602 14.174-14.536 24.304-31.523 31.612-53.012 2.0144-5.9234 4.0802-10.934 4.5905-11.136 2.1296-0.83921 8.2416-6.9094 11.68-11.6 10.617-14.484 15.908-33.894 11.346-41.618-3.5166-5.9532-15.202-8.5914-25.792-5.823-2.2 0.57514-5.125 1.2761-6.5 1.5577-4.7338 0.9694-25.041 11.529-32.597 16.951-7.279 5.2224-8.1162 5.5478-21.737 8.4473-20.207 4.3017-48.599 8.8992-59.492 9.6338l-9.3256 0.62882 2.5318-3.7308c6.4129-9.4499 8.4397-21.899 4.5816-28.142-2.7433-4.4388-9.8703-7.7663-17.714-8.2704-5.3158-0.34165-7.112 0.01912-12 2.4103-3.1616 1.5466-8.6256 5.6191-12.142 9.0499l-6.3938 6.2378-1.823-2.1833c-1.3227-1.5841-1.8321-3.8855-1.8563-8.3864l-0.0333-6.2031 4.75-2.3684c6.0676-3.0253 7.6508-6.6055 4.4348-10.029-2.0568-2.1893-2.1192-2.69-1.019-8.1685 1.1184-5.5687 1.0678-5.9207-1.1038-7.6791-1.2517-1.0136-4.4894-2.6291-7.1949-3.5899-4.6968-1.6681-4.89-1.8829-4.2781-4.7532 0.98558-4.623 7.3115-26.674 8.5074-29.655l1.0627-2.6493 7.4307 5.3313c8.3289 5.9757 16.382 9.3808 24.1 10.19 9.7988 1.0278 19.393-3.115 22.894-9.8863 2.0374-3.9398 2.0298-11.251-0.015-14.371-3.2493-4.9591-5.6904-5.6896-21.853-6.5395-11.625-0.61134-18.122-1.523-27.527-3.8631-22.792-5.6709-22.527-5.9549-24.227 25.937-1.1174 20.961-2.4062 29.992-4.2831 30.014-0.6485 0.0075-2.1295 0.26876-3.2912 0.58057-1.4526 0.3899-2.3671-0.0047-2.9286-1.2637-0.44911-1.0068-1.0737-11.751-1.3879-23.875-0.49731-19.188-0.81204-22.412-2.4288-24.879-1.7643-2.6923-2.1362-2.8056-7.4175-2.2606-5.9824 0.61743-19.531 6.6196-29.866 13.231-8.0855 5.1722-18.114 15.06-20.963 20.669-3.9117 7.7018-2.8658 16.337 2.2617 18.673 7.562 3.4455 17.668-1.8551 35.363-18.548 6.8404-6.4529 6.9622-6.5167 7.8714-4.1253 1.7513 4.6064 6.065 25.284 5.3373 25.584-7.5968 3.133-7.7296 3.3165-7.726 10.671 3e-3 5.8598-0.34467 7.2787-2.25 9.184-1.2394 1.2394-2.2535 2.8876-2.2535 3.6626 0 1.7536 4.5804 6.4135 8.0862 8.2264 2.2887 1.1835 2.7123 2.184 3.2828 7.7528 0.55459 5.4131 0.30809 7.1463-1.607 11.298-1.8842 4.0852-2.2576 6.5901-2.2355 14.997 0.0234 8.9027 0.33492 10.687 2.6416 15.133l2.615 5.0403-1.072 18.867-1.072 18.867-22.07 0.11798c-15.626 0.0835-24.843 0.60319-31.57 1.7798-29.068 5.0849-42.9 14.199-44.648 29.421-1.0225 8.9027 5.983 15.177 16.949 15.18 4.9419 1e-3 8.4226-1.0892 23.513-7.3663 29.825-12.407 43.479-16.561 54.586-16.611l4.8993-0.0216-0.56647 15.75c-0.31156 8.6625-0.96064 16.788-1.4424 18.057l-0.87592 2.3067-2.6787-2.107c-3.1722-2.4952-4.8777-1.886-9.519 3.4001-2.0633 2.35-2.8832 4.1514-2.5205 5.5382 0.47557 1.8186 0.0807 2.0554-3.4274 2.0554-8.1182 0-31.806 6.22-40.469 10.626-1.4852 0.75541-4.995 1.3735-7.7997 1.3735-5.9926 0-10.042 1.8455-12.921 5.8893-2.3965 3.3656-2.7775 9.6179-0.65872 10.811 0.78106 0.43983 1.5686 2.3747 1.75 4.2997 0.27053 2.8702 0.86966 3.6799 3.3299 4.5 2.4542 0.81808 2.9446 1.4774 2.6957 3.6243-0.91308 7.8746 9.8058 7.4635 14.769-0.56647 2.0626-3.3373 2.3974-3.4844 7.6206-3.3469 5.8793 0.15469 10.582-2.2242 11.264-5.6983 0.52692-2.6834-1.8295-6.3376-5.5825-8.6571-1.8476-1.1419-3.1887-2.589-2.9801-3.2158 1.5009-4.5113 22.443-6.2096 32.085-2.6019 7.4512 2.7878 7.8075 3.3793 6.5018 10.792l-1.0873 6.1724-6.143 3.2489c-8.9078 4.7112-8.9096 8.0425-7e-3 13.354 1.7869 1.0662 1.7724 1.2982-0.4114 6.5669-1.2451 3.004-3.8165 9.9209-5.7144 15.371l-3.4506 9.9093 5.2203 3.2512c2.8712 1.7881 5.5578 3.2613 5.9703 3.2737 0.4125 0.0124 0.75 2.9183 0.75 6.4575 0 7.178 1.1247 10.988 4.2183 14.291l2.0851 2.226-2.4017 4.6204c-3.2892 6.3272-9.6547 13.428-12.038 13.428-1.2982 0-2.4582-1.178-3.415-3.4679-1.952-4.6718-1.87-5.0076 1.2678-5.1898 5.828-0.3384 8.4759-8.9397 4.0333-13.101-1.2375-1.1592-3.427-2.5535-4.8655-3.0984-2.2319-0.84542-2.6862-1.7268-3.0977-6.0098-0.55526-5.7786-3.0017-10.133-5.6932-10.133-1.0232 0-2.0957-0.9-2.3833-2-0.76461-2.9239-7.386-2.6095-17.21 0.81706-13.856 4.8329-29.689 15.219-39.726 26.06-8.1876 8.8436-10.386 14.62-7.387 19.408 0.7631 1.2182 1.9151 4.5026 2.5599 7.2988 2.5154 10.907 7.985 15.768 17.053 15.154 3.025-0.20476 7.75-1.4079 10.5-2.6737zm-15.154-1.9944c-4.6293-2.102-9.1199-8.5576-9.9082-14.244-0.39662-2.8609 0.17902-4.0248 4.1177-8.3259l4.5788-5-0.68153 3.7667c-0.88711 4.9028 1.0238 9.5638 4.2533 10.374 1.3491 0.33859 4.7916 0.34074 7.6501 5e-3l5.1973-0.61083 1.1212 4.7325c1.0142 4.2806 0.9232 4.9475-0.95245 6.984-1.8244 1.9809-7.3628 4.2678-10.222 4.2209-0.55-9e-3 -2.8693-0.86516-5.154-1.9026zm222.33-1.7256c-1.4076-1.4076-0.47942-2.2724 6.6232-6.1705 16.481-9.0451 33.282-23.877 41.761-36.866 4.5329-6.9436 8.9378-17.582 8.9378-21.585 0-2.6943 2.2067-1.6023 3.2822 1.6243 2.6037 7.8111-19.219 38.211-37.202 51.825-8.8004 6.662-21.737 12.838-23.402 11.173zm-201.76-4.504c-0.63569-1.1878-1.3904-5.9193-1.677-10.514-0.44346-7.108-0.25309-8.6512 1.2756-10.34 3.8634-4.269 5.6493-1.9426 7.6064 9.9084 0.9556 5.7864 0.88011 7.2061-0.52794 9.929-1.9234 3.7194-4.9816 4.1855-6.677 1.0175zm39.016-0.12178c-4.7232-6.6774-14.931-24.788-14.931-26.49 0-2.7166 2.3486-4.4374 5.5285-4.0506 2.308 0.28073 3.0416 1.3532 5.6925 8.3223 3.2198 8.4646 5.1973 11.5 7.4922 11.5 2.6476 0 10.277-8.5044 14.781-16.476 4.9896-8.8314 5.4487-10.583 2.5766-9.8324-2.6996 0.70595-6.0704-6.1067-6.0704-12.269 0-4.3284 0.15848-4.6169 2.25-4.0954 1.2375 0.30857 5.8061 1.4684 10.152 2.5773 25.795 6.5814 48.269 4.7815 81.865-6.5564 7.5724-2.5554 14.016-4.3981 14.319-4.0948 1.1474 1.1474-5.7978 15.514-10.564 21.853-17.864 23.757-48.766 30.458-78.43 17.008-5.7625-2.6128-6.392-3.1784-5.8671-5.2709l0.58795-2.344-2.2824 2c-1.2553 1.1-6.107 7.4-10.781 14-12.557 17.729-13.348 18.419-16.319 14.219zm-28.858-14.192c-2.6324-8.8672-2.4684-11.899 0.66766-12.345 2.5817-0.36678 3.5986 1.5024 5.1925 9.5444 0.67271 3.3941 0.69944 6.1109 0.0763 7.75-1.7094 4.4961-3.6003 2.9195-5.9364-4.9498zm10.332 2.7074c-0.60245-0.40356-1.3451-2.3192-1.6503-4.2569-0.4754-3.0181-0.21028-3.6858 1.8494-4.6578 2.1293-1.0048 2.4701-0.87299 2.9784 1.1523 0.77444 3.0856 0.1509 7.802-1.0822 8.1853-0.55 0.17097-1.4929-0.0193-2.0954-0.42289zm-53.817-4.8662c-1.4955-3.8972 13.416-18.799 29.032-29.013 12.328-8.0632 28.055-13.789 29.126-10.605 0.23132 0.6875-0.1131 1.25-0.76539 1.25-2.2912 0-18.179 7.9779-25.291 12.7-3.9541 2.6251-12.413 9.8415-18.797 16.036-6.3844 6.1949-11.849 11.263-12.143 11.263s-0.81701-0.7346-1.1615-1.6324zm248.35-13.942c-1.4061-1.6943-3.1973-22.536-2.1756-25.315 0.62528-1.7006 2.1946-3.069 3.549-3.0945 0.4462-8e-3 0.52028 1.9252 0.16461 4.2969-0.79221 5.2828 0.86264 14.773 3.5085 20.121 1.4988 3.0294 1.6757 4.1637 0.74186 4.757-1.9685 1.2506-4.3801 0.93172-5.7885-0.76527zm-19.249-4.1424c-0.7681-1.5305-1.9456-5.0266-2.6166-7.7692-1.9738-8.0674-5.1069-14.513-7.0543-14.513-0.95477 0-4.3705 1.3289-7.5904 2.9531-3.22 1.6242-5.9437 2.8617-6.0526 2.75-0.10895-0.1117 0.0378-1.4309 0.32607-2.9316 0.3494-1.8187 2.7745-4.5697 7.273-8.25 3.7119-3.0368 7.19-5.5214 7.7292-5.5214 0.5392 0 1.8216 2.7783 2.8497 6.1741 1.0282 3.3957 2.9324 7.4374 4.2316 8.9814 1.5836 1.882 2.1504 3.4749 1.7194 4.8327-0.42186 1.3292 0.41303 3.8707 2.429 7.3942 3.1198 5.4528 3.0864 5.8699-0.64014 7.9946-0.73471 0.41889-1.7542-0.40103-2.604-2.0943zm29.387-0.91325c-2.4773-3.1494-3.7039-7.5579-4.6236-16.618-0.55132-5.4311-0.361-7.2425 0.97522-9.2819 1.8132-2.7673 3.6674-2.5497 2.9113 0.34168-0.2603 0.99538 1.132 6.7752 3.0939 12.844 4.0216 12.44 4.2158 13.881 1.9854 14.737-2.1848 0.83838-2.0368 0.90736-4.3422-2.0236zm-22.946-6.9868c-1.7217-2.4426-3.1304-4.8434-3.1304-5.335 0-0.49162 1.4083-2.3021 3.1295-4.0234l3.1295-3.1295 2.3705 2.2269c2.9594 2.7802 2.9589 4.202-3e-3 10.04l-2.3654 4.6619zm46.87-6.8827c0-4.8557-7.6413-6.9302-14.686-3.9869-1.9918 0.83222-3.8173 1.3173-4.0567 1.0779-0.2394-0.23939-0.86313-2.3396-1.3861-4.667-0.87097-3.8764-0.72616-4.4663 1.7244-7.0241 4.6518-4.8554 16.208-5.9973 22.254-2.1989 2.113 1.3275 2.28 1.9446 1.6548 6.1143-0.6406 4.2718-3.9041 12.185-5.0253 12.185-0.26383 0-0.47968-0.675-0.47968-1.5zm-167-1.0917c-17.455-3.1284-37.191-10.136-38.555-13.691-0.2965-0.77267 0.43372-3.8377 1.6227-6.8112 1.189-2.9735 3.228-8.5016 4.5311-12.285 3.1945-9.274 3.8367-9.9649 7.5017-8.0696 4.6854 2.4229 3.3211 0.88042-1.8506-2.0923-8.9746-5.1586-11.539-9.1641-7.3157-11.425 2.1844-1.169 6.3911-1.3764 7.4026-0.36501 0.3686 0.3686-0.0273 1.7347-0.87977 3.0357-1.5161 2.3139-1.4528 2.4085 2.9059 4.3365 2.4507 1.0841 6.5231 2.2544 9.0498 2.6007 4.3163 0.59162 4.7954 0.41598 7.9293-2.9069 5.4402-5.7683 6.9239-9.9256 6.4614-18.105-0.5461-9.6593-4.2564-17.222-12.514-25.507-5.9633-5.9828-6.4652-6.2753-8.1506-4.75-2.3643 2.1396-5.4338 2.0615-7.4715-0.19012-1.5413-1.7031-1.4342-2.0178 1.7303-5.085 3.2972-3.1958 3.4416-3.2342 6.4013-1.7037 1.6654 0.86122 6.7795 5.067 11.365 9.3462 30.422 28.392 35.97 32.193 47.049 32.236 15.878 0.061 26.788-10.478 26.788-25.879 0-3.8395 0.46971-7.2711 1.0438-7.6259 3.0618-1.8923 4.8882 3.0745 17.967 48.861 5.4887 19.214 6.8343 25.147 5.9462 26.217-3.3568 4.0447-29.911 13.934-46.958 17.488-10.06 2.0973-35.507 3.5328-42 2.3692zm-20.75-47.527c-3.1382-0.90613-3.2489-1.118-3.2173-6.1598 0.018-2.8718 0.45999-8.3714 0.98221-12.221l0.94949-7-3.6677-3.2664c-6.7354-5.9982-19.661-7.9104-31.143-4.6068-6.5066 1.8721-13.154 5.0298-13.154 6.2485 0 0.45907 2.0416 2.1251 4.5368 3.7024 7.7321 4.8874 6.8514 10.422-1.6584 10.422-3.1066 0-3.799-0.38073-4.0923-2.25-0.30413-1.9388-0.78636-1.5585-3.4867 2.75-4.4284 7.0656-5.9366 8.5-8.9371 8.5-2.6191 0-2.633-0.04-1.9698-5.6823 0.6456-5.4931 0.60595-5.6263-1.1911-4-2.2878 2.0704-6.0684 2.1926-6.8251 0.22052-0.30851-0.80397 0.12112-2.829 0.95474-4.5 1.4794-2.9655 1.4576-3.0382-0.90768-3.0382-2.1091 0-2.4234-0.46007-2.4234-3.5478 0-6.053 7.5204-10.793 14.388-9.0696 1.528 0.38349 4.4325-0.32698 7.9841-1.953 9.1236-4.1769 27.817-8.409 41.891-9.4836 14.219-1.0858 15.338-0.78549 20.03 5.3783 5.1878 6.8141 7.0336 11.849 7.507 20.478 0.54081 9.8575-1.2783 15.093-6.3284 18.214-3.4829 2.1526-5.2445 2.3015-10.222 0.86416zm104.26-4.1312c-0.2344-0.6875-1.1514-4.175-2.0378-7.75-0.88639-3.575-2.2555-8.4282-3.0424-10.785-1.9434-5.8202-1.8386-6.5638 0.81921-5.8109 7.0976 2.0108 18.885 3.7253 22.967 3.3405 6.1016-0.57527 7.7832-2.0546 7.7832-6.8469 0-5.8462 2.7314-11.792 5.767-12.554 3.2444-0.81429 5.2522 0.44737 7.6391 4.8003 2.094 3.8187 1.7175 7.5896-1.0322 10.339-2.5942 2.5942-5.7092 1.4997-7.0674-2.4833l-1.1936-3.5-0.0564 3.095c-0.0804 4.4107 3.0807 7.1192 6.4939 5.564 1.3982-0.63708 3.3089-2.5056 4.2459-4.1523 2.2918-4.0276 4.2037-3.859 4.2037 0.3709 0 1.8576 0.675 3.9378 1.5 4.6224 5.0223 4.1681-5.1865 9.3789-11.625 5.9334-1.6928-0.90594-3.2271-0.13127-10.184 5.1421-12.383 9.3859-23.948 14.289-25.18 10.675zm-56.511-14.73c-7.1795-3.9912-14.177-9.2901-28.417-21.52-11.389-9.7804-11.632-10.077-11.103-13.5 0.29758-1.925 0.83429-11.546 1.1927-21.379l0.65161-17.88 6.461 0.60334c3.5536 0.33184 9.0057 1.104 12.116 1.7159l5.6548 1.1125 3.9066 7.1636c6.435 11.8 10.088 17.032 16.286 23.327 7.0274 7.1374 13.169 10.337 21.247 11.07 5.866 0.53191 5.9769 0.59867 6.6112 3.9797 0.92686 4.9406-0.26708 12.104-2.8614 17.168-3.1717 6.1914-10.538 10.255-19.569 10.796-5.9805 0.35821-7.2473 0.0817-12.175-2.6577zm108.74-0.69044c-0.99296-2.1793-0.96297-2.7552 0.16305-3.1305 0.75891-0.25297 3.1359-2.0464 5.2822-3.9855 4.717-4.2615 6.3637-3.4237 5.3273 2.7105-0.85327 5.0505-2.7442 7.0761-6.6057 7.0761-2.2265 0-3.2484-0.65497-4.1668-2.6706zm-3.0736-5.9961c-0.36667-0.36666-0.66667-2.7575-0.66667-5.3129 0-3.7852 0.51975-5.1442 2.8047-7.3333 3.139-3.0074 7.9056-3.6055 8.8625-1.112 2.0669 5.3863-7.4587 17.3-11.001 13.758zm-5.6667-11.711c0-0.75765-0.675-1.9378-1.5-2.6224-2.2183-1.841-1.8268-4.7641 1.0191-7.61 3.3135-3.3135 7.5673-2.9679 8.8561 0.7196 1.4776 4.2277-3e-3 7.8368-3.8787 9.4563-4.2315 1.768-4.4965 1.7714-4.4965 0.0565zm-72.5-15.792c-11.002-1.2647-14.996-3.8182-24-15.342-14.237-18.222-25.435-43.811-25.485-58.238l-0.0148-4.25h4.5c5.1919 0 5.8079-1.2156 1.5167-2.9931-4.5018-1.8647-9.2396-0.49404-14.168 4.0989-2.5153 2.3439-3.5052 3.7538-2.3483 3.3445 3.7908-1.341 6.5-1.6812 6.5058-0.81689 0.0112 1.6798 1.9289 12.586 2.5661 14.593 0.60634 1.9104 0.35207 1.9928-4.2133 1.3654-2.6722-0.36723-6.1333-0.91959-7.6913-1.2274l-2.8327-0.55975 0.33272-16.821c0.183-9.2516 0.65962-17.147 1.0592-17.545 0.39954-0.39845 3.0638 0.24691 5.9205 1.4341 7.1133 2.9562 11.959 3.578 16.416 2.1068 4.5671-1.5073 11.758-7.9267 13.447-12.004 1.1592-2.7985 1.5659-2.9758 6.8609-2.9897 7.7676-0.0204 17.627-2.5122 23.864-6.0314 4.9206-2.7764 5.8966-2.9538 16.258-2.9538 12.269 0 35.003-2.8808 51.007-6.4637 12.325-2.7592 20-3.9882 20-3.2028 0 0.30832-2.3188 3.6219-5.1528 7.3635-9.4721 12.506-10.186 17.405-3.4722 23.838 9.7984 9.3885 28.576 10.826 48.852 3.7387 2.6-0.90873 4.985-1.3945 5.3-1.0796 0.9807 0.9807-3.1939 11.979-8.102 21.346-16.735 31.938-36.092 50.512-64.483 61.875-17.044 6.8218-41.914 9.7751-62.442 7.4152zm-158.94-20.098c-4.7852-2.7104-8.0125-7.7768-7.1481-11.221 0.69609-2.7734 12.133-14.512 14.139-14.512 0.72083 0 2.0463-0.73569 2.9454-1.6349 3.7176-3.7176 26.48-8.6041 46.008-9.8766 15.238-0.99292 49.935 2.1067 53.25 4.7569 2.7051 2.1629 0.78684 2.5258-11 2.081-12.33-0.46523-22.574 0.29842-41.531 3.0959-10.331 1.5246-18.723 3.409-18.07 4.0575 0.19302 0.19163 5.5259-0.29322 11.851-1.0774 14.492-1.7968 45.391-2.9148 54.273-1.9637 6.14 0.65753 9.7273 2.3272 9.7273 4.5274 0 0.45279-1.6875 0.43138-3.75-0.0476-9.4223-2.1881-39.101-0.15763-45.108 3.0861-0.90304 0.4876-5.4669 2.0999-10.142 3.5829s-16.228 6.0075-25.674 10.054c-19.19 8.2215-23.071 8.8853-29.77 5.091zm101.94-76.392c-8.5073-4.477-12.5-11.241-12.5-21.176 0-10.774 3.58-19.493 10.23-24.916 3.4922-2.8475 4.7151-3.25 9.8748-3.25 5.3558 0 6.2494 0.32563 9.87 3.5966 5.0917 4.6001 7.8653 9.1252 9.61 15.679 1.9495 7.3229 1.8828 12.118-0.15775 11.335-4.8043-1.8436-7.6183 5.4341-2.9276 7.5714 1.375 0.6265 2.497 1.4044 2.4934 1.7286-0.02 1.7896-4.3932 6.781-7.6894 8.7764-4.6144 2.7934-14.111 3.1238-18.804 0.65421zm32.832-14.764c0.36743-0.9575 0.66805-3.4742 0.66805-5.5927 0-3.4586 0.28074-3.8841 2.75-4.1682 2.1923-0.25225 2.8165-0.89858 3.0781-3.1872 0.72138-6.3123-3.0396-11.358-6.392-8.5761-2.4003 1.9921-1.7799-2.5511 0.93167-6.8229 5.3861-8.4853 10.962-12.18 19.544-12.951 7.0504-0.63298 13.022 0.95551 16.153 4.2967 2.1136 2.2556 2.4136 3.4624 2.2736 9.1473-0.3983 16.172-13.03 27.361-32.756 29.015-6.293 0.52759-6.8588 0.42251-6.2512-1.1608zm-10.332-0.57734c0-0.55 0.70156-1 1.559-1s1.2809 0.45 0.94098 1-1.0415 1-1.559 1-0.94098-0.45-0.94098-1zm11-19c0-0.55 0.45-1 1-1s1 0.45 1 1-0.45 1-1 1-1-0.45-1-1zm-42.37-14.25c-0.33164-1.2375-0.60913-5.2153-0.61664-8.8395-0.0128-6.1629 0.15782-6.6676 2.635-7.7963 4.0883-1.8627 14.389-4.083 19.02-4.0995 7.163-0.0254 7.3318 0.19544 7.3318 9.5922 0 7.3388-0.21981 8.389-1.75 8.3612-0.9625-0.0175-2.6235-0.6925-3.6911-1.5-4.1659-3.1509-14.238-0.80059-18.964 4.4254-2.4243 2.6807-3.2155 2.652-3.9647-0.14359zm23.183-11.5c-0.18626-0.97724-1.4318-1.9054-2.8206-2.102-2.4668-0.34908-2.4715-0.33482-0.5848 1.75 2.315 2.5581 3.8562 2.7174 3.4054 0.35195zm-23.241-30.426c-0.23205-0.72815-1.3794-6.2559-2.5496-12.284s-2.841-12.463-3.7128-14.3c-1.3064-2.753-1.3693-3.8148-0.35798-6.0401 0.73196-1.6106-3.7516 2.1648-11.112 9.3572-13.473 13.165-19.351 17.662-25.194 19.275-12.827 3.5416-12.821-12.311 8e-3 -25.194 10.582-10.626 32.362-21.34 41.575-20.453l3.2713 0.31491 0.82207 21.5c0.45214 11.825 0.90214 23.064 1 24.975 0.13317 2.6008-0.26306 3.5628-1.5751 3.8239-0.96417 0.1919-1.9429-0.24684-2.175-0.97499zm18.428-2.7747c0-0.52293 0.45423-3.1104 1.0094-5.75 0.55518-2.6396 1.6079-13.581 2.3394-24.315 0.73151-10.734 1.8681-20.521 2.5258-21.75 1.7506-3.2711 7.3606-2.9222 22.178 1.3793 10.991 3.1908 13.969 3.6468 25.448 3.8976 7.15 0.15617 13.508 0.33005 14.129 0.38639 1.7624 0.15996 3.7046 5.8589 3.7046 10.87 0 3.6884-0.50467 4.9829-2.6683 6.844-7.2088 6.2008-22.16 5.725-35.71-1.1363-5.3794-2.724-13.919-10.172-15.894-13.861-2.0691-3.8662-2.9905-3.1739-1.835 1.3788 0.85092 3.3523 0.60058 5.3178-1.5603 12.25-1.4156 4.5414-3.2368 10.732-4.0472 13.757-4.6064 17.195-4.5243 17-7.1467 17-1.3596 0-2.4721-0.42785-2.4721-0.95078zm-143 307.71c3.025-1.5342 8.425-3.3443 12-4.0225l6.5-1.233-6.4661-0.30333c-4.2028-0.19715-7.9433 0.26083-10.686 1.3084-4.4552 1.7014-10.787 7.8902-12.392 12.112-1.7878 4.7022-0.96218 4.6188 2.2946-0.23187 2.3119-3.4434 4.8375-5.6457 8.75-7.63zm-42.455 3.7899c4.6966-4.6966 2.286-12.844-3.223-10.893-2.606 0.92292-6.3224 4.4626-6.3224 6.0217 0 1.8059 0.74553 1.671 3.7271-0.67431 3.5422-2.7863 6.2729-2.6219 6.2729 0.37756 0 4.2152-5.3873 6.3729-10.366 4.1518-1.6606-0.7408-1.7394-0.59542-0.71482 1.3191 1.661 3.1036 7.3832 2.9405 10.627-0.30292zm21.917-7.9116c4.672-5.8867 12.68-11.198 19.216-12.744 8.5893-2.0321 9.293-2.7495 2.7686-2.8224-10.755-0.12024-19.337 5.778-25.056 17.219-2.8333 5.6687-2.6697 5.5807 3.0714-1.653zm-40.212-7.8544c-3.6218-1.7467-2.6477-3.0962 1.804-2.4991 4.6289 0.62087 4.9384-0.84852 0.68387-3.2474-1.9419-1.095-3.314-1.2165-5.4101-0.47934-5.3015 1.8645-3.7389 7.5038 2.0447 7.3786 2.9762-0.0644 3.0187-0.12018 0.87755-1.1528zm31.115-1.8521c3.447-2.7114 3.6647-8.0927 0.41932-10.366-7.1427-5.003-16.784-1.0876-16.784 6.816 0 3.4608 3.494 5.6224 9.0876 5.6224 3.1826 0 5.4712-0.65178 7.2775-2.0726zm-9.2705-1.7802c-1.323-0.38098-2.898-1.4981-3.5-2.4826-0.88533-1.4476-0.64322-2.1604 1.2662-3.7273 1.2984-1.0655 3.5608-1.9374 5.0275-1.9374 3.0869 0 7.1117 2.5095 7.1117 4.4343 0 2.91-5.515 4.9773-9.9054 3.7129zm240.51-265.31c0.41965-0.67901-0.64681-2.3828-2.5633-4.0952-2.9724-2.6559-3.7171-2.8672-7.8964-2.2404-4.4859 0.6727-10.742 3.2306-9.9176 4.055 0.22504 0.22504 1.9514-0.03314 3.8363-0.57374 5.4981-1.5768 8.4136-1.1725 10.94 1.5171 2.5459 2.7099 4.4685 3.169 5.6006 1.3372z"/>
</svg>
