<?xml version="1.0" encoding="UTF-8" standalone="no"?>
<!-- Created with Inkscape (http://www.inkscape.org/) -->

<svg
   version="1.1"
   id="svg1"
   width="460"
   height="460"
   viewBox="0 0 460 460"
   xmlns="http://www.w3.org/2000/svg"
   xmlns:svg="http://www.w3.org/2000/svg">

    <path
      
       d="m 156,455.06102 c -54.77221,-1.41089 -98.115968,-4.10958 -104.335308,-6.49617 -7.104935,-2.72641 14.585816,-5.30828 62.835308,-7.47934 37.95725,-1.70794 168.21539,-2.33973 215,-1.04281 59.95126,1.66191 92.76283,3.73621 99.5,6.29023 2.28107,0.86474 2.34291,1.03565 0.70623,1.9516 -10.16581,5.6892 -166.07031,9.54913 -273.70623,6.77649 z m -52.75914,-40.85671 c -4.092125,-2.56893 -6.787485,-6.94999 -8.293504,-13.48035 -0.644847,-2.79616 -1.796803,-6.0806 -2.559902,-7.29875 -2.999337,-4.78789 -0.800651,-10.56464 7.386967,-19.40824 C 109.81111,363.17615 125.64372,352.79 139.5,347.95709 c 9.82428,-3.42659 16.44564,-3.74094 17.21025,-0.81706 0.28766,1.1 1.36015,2 2.38333,2 2.69154,0 5.13794,4.3541 5.6932,10.13274 0.41153,4.28294 0.86586,5.16435 3.09774,6.00977 1.43851,0.54489 3.62798,1.93918 4.86548,3.09842 4.44265,4.16167 1.79472,12.76301 -4.03327,13.10141 -3.13775,0.18219 -3.21977,0.51795 -1.26776,5.18978 0.95679,2.28991 2.1168,3.46788 3.41502,3.46788 2.38332,0 8.74883,-7.1005 12.03773,-13.42768 l 2.40172,-4.62042 -2.08511,-2.22595 C 180.12474,366.56343 179,362.75298 179,355.57493 c 0,-3.53919 -0.3375,-6.44506 -0.75,-6.45749 -0.4125,-0.0124 -3.09915,-1.4856 -5.97034,-3.27373 l -5.22034,-3.25116 3.4506,-9.90931 c 1.89784,-5.45013 4.4693,-12.3671 5.71437,-15.37105 2.18377,-5.26874 2.1983,-5.50078 0.4114,-6.56694 -8.90236,-5.31164 -8.90055,-8.64293 0.007,-13.35414 l 6.14296,-3.24892 1.08726,-6.17245 c 1.30571,-7.41264 0.94937,-8.00411 -6.5018,-10.79195 -9.64242,-3.60769 -30.58447,-1.90943 -32.08534,2.60191 -0.20853,0.62681 1.13253,2.07393 2.98013,3.21582 9.59108,5.92761 6.13266,14.66622 -5.68133,14.35539 -5.22317,-0.13742 -5.55801,0.01 -7.62057,3.34693 -4.9628,8.02999 -15.68164,8.44112 -14.76856,0.56647 0.24893,-2.14686 -0.24148,-2.8062 -2.69571,-3.62428 -2.46022,-0.82007 -3.05935,-1.62975 -3.32988,-4.5 -0.18144,-1.925 -0.96894,-3.85986 -1.75,-4.29969 -2.11874,-1.1931 -1.73778,-7.44545 0.65872,-10.81103 2.87967,-4.04375 6.9288,-5.88928 12.92143,-5.88928 2.80463,0 6.31447,-0.6181 7.79966,-1.37355 8.66285,-4.40643 32.35059,-10.62645 40.46876,-10.62645 3.5081,0 3.90293,-0.23677 3.42736,-2.05535 -0.36265,-1.38677 0.45723,-3.18826 2.52051,-5.53821 4.64126,-5.28611 6.34677,-5.8953 9.51895,-3.40006 l 2.67866,2.10703 0.87592,-2.3067 c 0.48176,-1.26869 1.13084,-9.39421 1.4424,-18.05671 l 0.56647,-15.75 -4.89934,0.0216 c -11.10729,0.0491 -24.76093,4.20386 -54.58618,16.61054 -15.08997,6.27711 -18.5707,7.36759 -23.51259,7.36627 -7.08444,-0.002 -11.90669,-2.23341 -15.12354,-6.99845 -1.932636,-2.86277 -2.264933,-4.35236 -1.825148,-8.18161 C 97.100065,208.73693 110.93156,199.62275 140,194.53782 c 6.72623,-1.17662 15.94378,-1.69628 31.56957,-1.77981 l 22.06956,-0.11798 1.07198,-18.86675 1.07198,-18.86676 -2.61501,-5.04032 c -2.30663,-4.44592 -2.61814,-6.23057 -2.64155,-15.13324 -0.0221,-8.40719 0.35128,-10.91206 2.23551,-14.99726 1.91505,-4.15202 2.16155,-5.88515 1.60696,-11.29829 -0.57055,-5.56887 -0.99417,-6.56931 -3.28283,-7.75282 C 187.58041,98.871686 183,94.211857 183,92.458207 c 0,-0.775 1.01407,-2.423159 2.25348,-3.662576 1.90533,-1.905328 2.25295,-3.324226 2.25,-9.183989 -0.004,-7.354274 0.12918,-7.537787 7.72596,-10.670789 0.72777,-0.300142 -3.58595,-20.978109 -5.33728,-25.584481 -0.90924,-2.391458 -1.03096,-2.327663 -7.8714,4.125261 -17.69553,16.693059 -27.80142,21.993603 -35.36344,18.54812 -5.12752,-2.336258 -6.1734,-10.971219 -2.26168,-18.672972 2.84879,-5.608962 12.87746,-15.497219 20.96295,-20.669449 10.33535,-6.611441 23.8841,-12.613651 29.86645,-13.231084 5.28128,-0.545077 5.65318,-0.431738 7.41751,2.260568 1.61676,2.467126 1.93149,5.690976 2.4288,24.878813 0.31425,12.124418 0.9388,22.868152 1.38791,23.874964 0.56159,1.258983 1.47604,1.653553 2.92865,1.263655 1.16165,-0.311803 2.64269,-0.573058 3.29119,-0.580568 1.87694,-0.02174 3.16573,-9.052882 4.28311,-30.013655 1.70009,-31.8919556 1.4348,-31.6079441 24.22724,-25.9370745 9.40523,2.3400675 15.90171,3.2517725 27.52716,3.8631135 16.16236,0.849921 18.60346,1.580432 21.8528,6.539544 2.04473,3.120656 2.05235,10.431389 0.015,14.371235 -3.50153,6.771229 -13.09525,10.914048 -22.89406,9.886261 -7.71841,-0.809575 -15.77151,-4.214665 -24.10037,-10.190348 l -7.43074,-5.331312 -1.06271,2.649291 c -1.19593,2.98143 -7.52181,25.032379 -8.50739,29.655378 -0.61192,2.870274 -0.41864,3.08502 4.27813,4.753165 2.70546,0.960892 5.94314,2.576368 7.19486,3.589947 2.17153,1.758403 2.22212,2.110371 1.10377,7.679079 -1.10024,5.478502 -1.03779,5.979154 1.01897,8.168469 3.21592,3.423191 1.63271,7.00337 -4.43484,10.028686 l -4.75,2.368378 0.0333,6.203103 c 0.0241,4.50085 0.53353,6.80222 1.85626,8.38636 l 1.82298,2.18327 6.39375,-6.23782 c 3.51656,-3.4308 8.98054,-7.50324 12.14219,-9.049869 4.88802,-2.391132 6.6842,-2.751903 12,-2.410254 7.84357,0.504109 14.97052,3.831603 17.71384,8.270393 3.85806,6.24247 1.83122,18.69186 -4.58164,28.14175 l -2.53182,3.73084 9.32559,-0.62882 c 10.89301,-0.73451 39.28412,-5.33202 59.49158,-9.63376 13.62032,-2.89949 14.4576,-3.22487 21.73655,-8.44728 7.55658,-5.42159 27.86361,-15.98122 32.59745,-16.95062 1.375,-0.28157 4.3,-0.982528 6.5,-1.557673 10.58944,-2.768394 22.27496,-0.130131 25.79157,5.823023 4.56264,7.72392 -0.72878,27.13381 -11.34554,41.61755 -3.4385,4.69092 -9.55046,10.76116 -11.68008,11.60037 -0.51033,0.20109 -2.57605,5.21208 -4.59049,11.13551 -7.30808,21.48925 -17.4378,38.47641 -31.61195,53.01202 -21.03279,21.56918 -46.40213,33.06247 -84.31351,38.19729 -5.28273,0.71551 -5.33757,0.8688 -2.86968,8.02081 1.49095,4.32082 2.35594,5.30479 6.36788,7.24382 6.32445,3.05669 17.5454,4.90717 22.42702,3.69852 3.57642,-0.8855 3.84575,-1.22157 4.46523,-5.57171 0.93535,-6.56823 4.24206,-13.53987 6.80842,-14.3544 1.29082,-0.40969 3.06163,-0.0842 4.43418,0.81519 2.13074,1.39611 2.46449,1.30725 4.93977,-1.31532 5.46127,-5.78623 11.54807,-5.6542 14.03777,0.3045 0.94063,2.25123 2.32158,3.6338 4.06717,4.07191 2.99013,0.75048 4.99612,4.78247 4.11869,8.27845 -0.39498,1.57371 0.004,2.55339 1.32951,3.26266 2.7846,1.49027 3.37483,5.39911 1.51656,10.0434 -3.12951,7.8214 -10.29201,10.5088 -14.32919,5.37636 -1.91188,-2.43056 -2.22393,-2.51855 -3.82258,-1.07791 -2.79568,2.51938 -6.62652,3.00801 -10.59216,1.35106 l -3.63547,-1.51899 -8.65884,6.53066 c -4.76237,3.59186 -11.54458,7.95368 -15.07158,9.69292 -6.38065,3.14645 -6.40945,3.17972 -5.7579,6.65277 0.36015,1.91979 2.18941,7.29622 4.06501,11.94764 4.51387,11.19419 4.45593,12.43858 -0.65033,13.96845 -3.44055,1.03082 -4.36047,1.91634 -6.02513,5.79983 -1.08054,2.52079 -1.77012,4.77775 -1.53241,5.01546 0.90119,0.90119 6.70245,-2.89795 12.30177,-8.0562 9.07399,-8.35922 12.83094,-9.68754 13.88452,-4.90907 1.53664,6.96932 3.46529,12.91618 4.76489,14.69225 1.38814,1.89706 1.49566,1.87961 4.62077,-0.75 3.52046,-2.96227 3.896,-3.07309 5.96857,-1.76133 1.00523,0.63621 1.97982,0.19174 3.32258,-1.51531 1.04507,-1.32859 2.81191,-2.41561 3.92633,-2.41561 1.11442,0 3.2873,-1.35 4.82863,-3 1.9119,-2.0467 3.75779,-3 5.80892,-3 1.65358,0 5.24848,-1.16318 7.98868,-2.58484 6.65206,-3.45121 15.51696,-4.22278 19.85096,-1.72775 C 391.73585,340.21026 395,343.99287 395,350.45838 c 0,2.55807 -1.69774,5.95055 -6.75,13.4881 -14.3773,21.44971 -29.4692,36.00606 -46.24107,44.60016 -13.44796,6.89089 -11.48933,7.12624 -22.1092,-2.65661 -2.27528,-2.09595 -2.37821,-5.37894 -0.39973,-12.75 2.1929,-8.16991 2.01145,-9.48215 -1.32707,-9.59762 -7.54617,-0.26098 -9.7153,-2.44054 -8.49603,-8.53686 0.63318,-3.16594 4.46705,-7.45905 7.52901,-8.43087 1.58677,-0.50363 1.88577,-1.22626 1.4366,-3.47208 -1.02989,-5.14947 -4.06995,-10.45103 -6.16539,-10.75185 -1.11908,-0.16065 -6.89775,2.67163 -12.9961,6.36973 -6.03956,3.66245 -12.03715,7.06057 -13.32797,7.55138 -1.29082,0.49081 -5.79082,4.38235 -10,8.64787 -12.45165,12.6183 -24.2551,17.59203 -41.65305,17.55173 -13.39421,-0.031 -23.52383,-2.4877 -41.15015,-9.97989 -0.6335,-0.26928 -4.13162,3.98965 -7.78754,9.48127 -7.61216,11.43435 -14.8018,19.58005 -16.73408,18.95933 -0.73053,-0.23467 -4.09441,-4.55061 -7.4753,-9.59098 -6.11921,-9.12276 -6.15406,-9.15363 -7.68974,-6.80988 -1.09925,1.67767 -2.21825,2.22527 -3.89303,1.90511 -1.7488,-0.3343 -2.69532,0.19526 -3.69813,2.06903 -0.74127,1.38507 -2.62489,3.13685 -4.18581,3.89282 -1.56093,0.75598 -3.88215,2.91964 -5.15828,4.80813 -1.84338,2.72796 -3.03006,3.46064 -5.77408,3.56504 -1.89962,0.0723 -5.70386,1.16706 -8.45386,2.43286 -7.00543,3.22452 -15.05025,3.64224 -19.25914,1.00001 z m 13.8334,-2.06834 c 1.96584,-0.54609 4.50741,-2.00608 5.64793,-3.24442 1.87565,-2.03651 1.9666,-2.70346 0.95245,-6.98401 l -1.12124,-4.73249 -5.19726,0.61083 c -2.8585,0.33596 -6.30105,0.33381 -7.65011,-0.005 -3.22951,-0.81056 -5.14044,-5.47157 -4.25333,-10.3744 l 0.68153,-3.76667 -4.57875,5 c -3.938655,4.30102 -4.514288,5.46494 -4.11767,8.32587 0.788317,5.68639 5.2789,12.14206 9.90818,14.24404 4.8592,2.20636 5.05294,2.22481 9.72827,0.92603 z m 223.48598,-6.03631 c 16.74914,-8.00974 37.75033,-30.13281 47.15629,-49.67537 2.82123,-5.86161 3.30272,-7.72651 2.56572,-9.9375 C 389.20674,343.26024 387,342.16821 387,344.86253 c 0,4.00323 -4.40496,14.64123 -8.93782,21.58487 -8.47978,12.98972 -25.2806,27.82131 -41.76129,36.86644 -7.10264,3.89816 -8.03084,4.76291 -6.62322,6.17052 0.9176,0.91761 3.68745,0.0561 10.88257,-3.3847 z m -205.96863,-2.13679 c 1.40805,-2.72287 1.48354,-4.14258 0.52794,-9.92897 -1.95715,-11.85096 -3.74306,-14.17735 -7.60642,-9.90837 -1.5287,1.68918 -1.71907,3.23235 -1.27561,10.34036 0.28668,4.59517 1.04135,9.3267 1.67704,10.5145 1.69545,3.16796 4.75365,2.70192 6.67705,-1.01752 z m 38.1096,0.92716 c 1.12742,-1.2375 5.87441,-7.65 10.54887,-14.25 4.67446,-6.6 9.52612,-12.9 10.78146,-14 l 2.28244,-2 -0.58795,2.34402 c -0.52488,2.09251 0.10464,2.65805 5.86712,5.27089 29.66364,13.45013 60.56601,6.74884 78.42979,-17.00779 4.76663,-6.33904 11.71186,-20.70565 10.56441,-21.8531 -0.30332,-0.30332 -6.74706,1.53932 -14.31942,4.09477 -33.59686,11.33793 -56.07039,13.13777 -81.86549,6.55639 -4.34634,-1.10893 -8.91494,-2.26871 -10.15244,-2.57728 -2.09152,-0.52154 -2.25,-0.23308 -2.25,4.09536 0,6.16186 3.37087,12.97452 6.07043,12.26857 2.8721,-0.75107 2.41298,1.00097 -2.57657,9.83238 -4.50368,7.97143 -12.13306,16.47579 -14.78066,16.47579 -2.29491,0 -4.27246,-3.0354 -7.49224,-11.5 -2.65092,-6.96911 -3.38446,-8.04153 -5.69248,-8.32226 C 154.34865,373.931 152,375.65182 152,378.36839 c 0,1.09091 3.00632,6.99831 6.68072,13.12756 10.47574,17.47455 10.38339,17.38633 14.02049,13.39408 z m -28.69213,-9.27387 c 0.62318,-1.63911 0.59645,-4.35593 -0.0763,-7.75 -1.59394,-8.04204 -2.61082,-9.91119 -5.19249,-9.54441 -3.13607,0.44554 -3.30004,3.47743 -0.66766,12.34464 2.33612,7.86925 4.227,9.44586 5.93641,4.94977 z m 7.819,-4.92408 c 0.18045,-1.53654 0.0698,-3.82286 -0.24592,-5.08072 -0.50832,-2.02531 -0.84913,-2.15717 -2.9784,-1.15232 -2.05972,0.97204 -2.32484,1.63975 -1.84944,4.65784 0.88591,5.62427 4.46767,6.73626 5.07376,1.5752 z m -43.93597,-11.81546 c 6.38434,-6.19487 14.84303,-13.41124 18.79709,-16.03638 7.11285,-4.72227 23.00029,-12.70021 25.29149,-12.70021 0.65229,0 0.99671,-0.5625 0.76539,-1.25 -1.07153,-3.18465 -16.79863,2.54148 -29.12636,10.60471 -15.61613,10.21408 -30.527652,25.11568 -29.032167,29.01285 0.344534,0.89784 0.867227,1.63244 1.161542,1.63244 0.294315,0 5.758665,-5.06853 12.143015,-11.26341 z m 240.83417,-3.54626 c 0.93388,-0.59329 0.75698,-1.72759 -0.74186,-4.75703 -2.6459,-5.34782 -4.30075,-14.83821 -3.50854,-20.12105 0.35567,-2.37174 0.28159,-4.30536 -0.16461,-4.29694 -1.35447,0.0256 -2.92377,1.39389 -3.54905,3.09454 -1.02171,2.77888 0.76945,23.62092 2.17558,25.31521 1.40838,1.69699 3.82001,2.01582 5.78848,0.76527 z m -19.97402,-4.47035 c 0.96754,-0.74839 0.55384,-2.18933 -1.81953,-6.33755 -2.01595,-3.52352 -2.85084,-6.06507 -2.42898,-7.39424 0.43093,-1.35774 -0.13582,-2.95066 -1.71944,-4.83268 -1.29924,-1.54405 -3.20346,-5.5857 -4.23161,-8.98144 -1.02814,-3.39574 -2.31051,-6.17407 -2.84971,-6.17407 -0.53919,0 -4.01733,2.48465 -7.72919,5.52144 -4.49848,3.68034 -6.92362,6.43126 -7.27302,8.25 -0.28829,1.50071 -0.43502,2.81994 -0.32607,2.93164 0.10896,0.11169 2.83264,-1.12581 6.05262,-2.75 3.21998,-1.6242 6.63568,-2.95308 7.59045,-2.95308 1.94741,0 5.08054,6.44607 7.05431,14.51345 0.671,2.7426 1.84845,6.23876 2.61655,7.76925 1.3549,2.69974 2.05994,2.76062 5.06362,0.43728 z m 28.66595,0.67303 c 2.23042,-0.85589 2.03627,-2.29703 -1.98536,-14.73716 -1.96193,-6.06887 -3.35418,-11.8487 -3.09388,-12.84408 0.75612,-2.8914 -1.0981,-3.10902 -2.91133,-0.34168 -2.77318,4.23242 -0.45608,20.68144 3.64833,25.89936 2.30546,2.93092 2.15745,2.86194 4.34224,2.02356 z m -19.4224,-15.4687 c 0.002,-0.86662 -1.06252,-2.5778 -2.36627,-3.80261 l -2.37046,-2.22693 -3.12954,3.12954 C 328.40829,354.88558 327,356.6961 327,357.18772 c 0,0.49161 1.40868,2.89235 3.1304,5.33497 l 3.1304,4.44114 2.36542,-4.6619 c 1.30097,-2.56404 2.36729,-5.37096 2.36959,-6.23759 z m 41.88862,-2.69778 c 1.0588,-2.07541 2.23805,-5.86048 2.62056,-8.41127 0.62529,-4.16971 0.45828,-4.78682 -1.65475,-6.11429 -6.04618,-3.79839 -17.60251,-2.65653 -22.25431,2.1989 -2.45051,2.55778 -2.59532,3.14767 -1.72435,7.02407 0.52295,2.32748 1.14668,4.42766 1.38608,4.66705 0.23939,0.2394 2.0649,-0.24564 4.05668,-1.07786 C 369.35871,348.70983 377,350.7843 377,355.64003 c 0,2.41094 0.82727,1.75889 2.88443,-2.27347 z M 252,352.17918 c 17.04646,-3.55388 43.60069,-13.44323 46.95752,-17.48797 0.88807,-1.07005 -0.45749,-7.00266 -5.94622,-26.2171 -13.07926,-45.78667 -14.90568,-50.75346 -17.9675,-48.86115 -0.57409,0.35481 -1.0438,3.78647 -1.0438,7.62593 0,15.40071 -10.90943,25.94022 -26.78751,25.87918 -11.07902,-0.0426 -16.62701,-3.84383 -47.04915,-32.23594 -4.58517,-4.27921 -9.69929,-8.48501 -11.36471,-9.34623 -2.95971,-1.53053 -3.10414,-1.49209 -6.40132,1.70366 -3.16449,3.06715 -3.2716,3.3819 -1.73031,5.085 2.0377,2.25163 5.10725,2.32974 7.47151,0.19012 1.6854,-1.52527 2.18723,-1.23281 8.15056,4.75 8.25794,8.28494 11.96826,15.84725 12.51436,25.50653 0.46243,8.17942 -1.02127,12.33678 -6.46145,18.10505 -3.13385,3.32284 -3.61295,3.49848 -7.92929,2.90686 -2.52666,-0.34632 -6.59904,-1.51663 -9.04975,-2.60069 -4.35863,-1.92803 -4.42201,-2.02261 -2.90587,-4.33654 0.85247,-1.30103 1.24837,-2.66709 0.87977,-3.03569 -1.01145,-1.01144 -5.21823,-0.80401 -7.40258,0.36501 -4.22372,2.26047 -1.65885,6.26588 7.31574,11.42453 5.17171,2.97273 6.536,4.51523 1.85059,2.09231 -3.66499,-1.89524 -4.30723,-1.20438 -7.5017,8.06962 -1.3031,3.7831 -3.3421,9.31119 -4.5311,12.28465 -1.189,2.97347 -1.91922,6.03849 -1.62272,6.81116 1.36393,3.55436 21.0995,10.56246 38.55493,13.69086 6.4926,1.16362 31.94001,-0.27183 42,-2.36916 z m -52.5276,-46.02209 c 5.05012,-3.12115 6.86923,-8.35693 6.32842,-18.21447 -0.4734,-8.62875 -2.31925,-13.66401 -7.50701,-20.47814 -4.69266,-6.16383 -5.81094,-6.46409 -20.03035,-5.37834 -14.07347,1.07461 -32.76726,5.30666 -41.89086,9.48359 -3.55162,1.62598 -6.45616,2.33645 -7.98411,1.95296 C 121.52043,271.79891 114,276.53932 114,282.59228 c 0,3.08768 0.31426,3.54775 2.42336,3.54775 2.3653,0 2.38704,0.0728 0.90768,3.03824 -0.83362,1.67103 -1.26325,3.69603 -0.95474,4.5 0.75676,1.97208 4.5373,1.84993 6.82512,-0.22052 1.79701,-1.62627 1.83666,-1.4931 1.19106,4 -0.66315,5.64232 -0.64929,5.68228 1.96984,5.68228 3.00053,0 4.5087,-1.43441 8.93711,-8.5 2.70037,-4.30849 3.1826,-4.68882 3.48673,-2.75 0.29322,1.86927 0.98569,2.25 4.09226,2.25 8.50979,0 9.39051,-5.5349 1.65842,-10.42231 C 142.04158,282.14048 140,280.47441 140,280.01534 c 0,-1.21869 6.64736,-4.3764 13.15391,-6.24852 11.48135,-3.30351 24.40742,-1.3914 31.14277,4.60685 l 3.66774,3.26636 -0.94949,7 c -0.52222,3.85 -0.96422,9.34963 -0.98221,12.22141 -0.0316,5.04184 0.079,5.25368 3.21728,6.15981 4.9779,1.43732 6.73948,1.2884 10.2224,-0.86416 z M 304.5,301.28133 c 3.3,-1.57141 9.68605,-5.65104 14.19123,-9.06585 6.95719,-5.27336 8.49148,-6.04803 10.18425,-5.14209 2.89747,1.55068 8.33758,1.30613 10.90201,-0.49006 2.58723,-1.81217 2.83634,-3.68897 0.72251,-5.4433 -0.825,-0.68469 -1.5,-2.76479 -1.5,-4.62244 0,-4.22986 -1.91183,-4.39854 -4.20368,-0.3709 -0.93703,1.6467 -2.8477,3.51526 -4.24594,4.15234 -3.41324,1.55518 -6.57437,-1.15327 -6.49394,-5.56399 l 0.0564,-3.09501 1.19356,3.5 c 1.35826,3.98296 4.47323,5.07747 7.06741,2.48329 2.74978,-2.74978 3.12625,-6.52063 1.03225,-10.33937 -2.38693,-4.35292 -4.39471,-5.61458 -7.6391,-4.80029 -3.03555,0.76188 -5.767,6.70796 -5.767,12.55416 0,4.79233 -1.68157,6.27161 -7.78318,6.84688 -4.08153,0.38482 -15.86923,-1.32968 -22.96682,-3.34049 -2.65779,-0.75297 -2.76263,-0.009 -0.81921,5.81087 0.78694,2.35672 2.15603,7.20995 3.04242,10.78495 0.8864,3.575 1.80342,7.0625 2.03782,7.75 0.68792,2.01759 4.56588,1.44989 10.98897,-1.6087 z m -43.32498,-13.87104 c 3.89728,-2.20116 5.92675,-4.18221 7.56946,-7.38889 2.59437,-5.06436 3.78831,-12.22784 2.86145,-17.16839 -0.63429,-3.38107 -0.74519,-3.44783 -6.61123,-3.97974 -14.01994,-1.27129 -24.91117,-11.25256 -37.53271,-34.39687 l -3.90662,-7.16364 -5.65484,-1.11252 c -3.11016,-0.61188 -8.56229,-1.38402 -12.11585,-1.71586 l -6.46103,-0.60334 -0.65161,17.8795 c -0.35839,9.83372 -0.8951,19.45449 -1.19268,21.37949 -0.52918,3.42315 -0.2854,3.71956 11.1032,13.5 14.24064,12.22976 21.2379,17.52861 28.41744,21.51985 4.92771,2.7394 6.19456,3.01594 12.17502,2.65773 5.07955,-0.30425 7.94779,-1.11866 12,-3.40732 z m 93.16231,1.24956 c 1.95001,-1.95002 3.19948,-9.38301 1.81071,-10.77178 -0.74688,-0.74688 -2.21331,-0.0184 -4.96249,2.46536 -2.14629,1.93904 -4.52327,3.73251 -5.28218,3.98548 -1.12602,0.37534 -1.15601,0.95122 -0.16305,3.13053 0.91838,2.01562 1.94031,2.67059 4.16681,2.67059 1.62251,0 3.6161,-0.66608 4.4302,-1.48018 z m -5.43212,-9.09352 c 3.2007,-2.6932 5.79686,-9.15434 4.76197,-11.85123 -0.95682,-2.49345 -5.72344,-1.89535 -8.86246,1.11202 -2.28497,2.18914 -2.80472,3.54811 -2.80472,7.33333 0,6.87119 1.75702,7.73781 6.90521,3.40588 z m -7.40868,-9.8604 c 3.87596,-1.61948 5.35633,-5.22862 3.87872,-9.45633 -1.28879,-3.68746 -5.54262,-4.03311 -8.85613,-0.7196 -2.84595,2.84595 -3.23741,5.76902 -1.01912,7.61003 0.825,0.68469 1.5,1.86479 1.5,2.62244 0,1.71482 0.26505,1.71148 4.49653,-0.0565 z M 308.0702,252.12572 c 36.432,-7.42436 63.29313,-29.15868 83.35508,-67.44561 4.9081,-9.3668 9.08266,-20.36548 8.10196,-21.34618 -0.31497,-0.31496 -2.69994,0.17085 -5.29995,1.07958 -20.27667,7.08689 -39.05387,5.64988 -48.85229,-3.73866 -6.71353,-6.43269 -5.99985,-11.33224 3.47223,-23.83778 2.83402,-3.74162 5.15277,-7.05522 5.15277,-7.36354 0,-0.78545 -7.67457,0.44355 -20,3.20279 -16.00453,3.58286 -38.73833,6.46371 -51.00739,6.46371 -10.36116,0 -11.33718,0.17733 -16.25776,2.95377 -6.23697,3.51921 -16.09597,6.01105 -23.86353,6.03145 -5.295,0.0139 -5.70173,0.19114 -6.86091,2.98966 -1.68897,4.07752 -8.88,10.49695 -13.44712,12.00423 -4.45778,1.4712 -9.30297,0.8494 -16.41631,-2.10677 -2.85675,-1.18721 -5.52099,-1.83257 -5.92053,-1.43412 -0.39955,0.39845 -0.87617,8.29392 -1.05917,17.54549 l -0.33272,16.82104 2.83272,0.55975 c 1.558,0.30786 5.01909,0.86022 7.69131,1.22745 4.56539,0.62741 4.81966,0.54501 4.21332,-1.36537 -0.63719,-2.00761 -2.55489,-12.91331 -2.56612,-14.59316 -0.006,-0.86429 -2.71496,-0.52412 -6.50579,0.81689 -1.15691,0.40926 -0.16698,-1.00062 2.34834,-3.34454 4.92876,-4.59291 9.66657,-5.96355 14.16833,-4.09887 4.29123,1.77749 3.67526,2.9931 -1.51667,2.9931 H 215 l 0.0148,4.25 c 0.0502,14.4276 11.24793,40.01653 25.48522,58.23845 9.00398,11.52394 12.99846,14.07743 24,15.34211 12.39515,1.42488 31.49351,0.61621 43.5702,-1.84487 z M 135.32567,228.782 c 9.44588,-4.04692 20.99933,-8.57141 25.67433,-10.05442 4.675,-1.48301 9.23886,-3.09533 10.1419,-3.58293 6.0074,-3.2437 35.68576,-5.27415 45.1081,-3.08607 2.0625,0.47895 3.75,0.50036 3.75,0.0476 0,-2.20019 -3.58731,-3.86983 -9.72728,-4.52736 -8.88163,-0.95114 -39.78076,0.16683 -54.27272,1.96366 -6.325,0.78422 -11.65792,1.26907 -11.85094,1.07744 -0.65324,-0.64853 7.73871,-2.53288 18.07008,-4.0575 18.95654,-2.79745 29.20082,-3.5611 41.53086,-3.09587 11.78684,0.44473 13.70512,0.0818 11,-2.08103 -3.31468,-2.65022 -38.01248,-5.74984 -53.25,-4.75692 -19.52776,1.27249 -42.29036,6.15897 -46.008,9.8766 -0.89917,0.89917 -2.22462,1.63486 -2.94545,1.63486 -2.00607,0 -13.442798,11.73844 -14.138889,14.51189 -0.864472,3.44432 2.362919,8.51071 7.148069,11.2211 6.69868,3.79425 10.58025,3.13046 29.76994,-5.09102 z m 90.97835,-71.95503 c 3.29624,-1.99542 7.66939,-6.98679 7.68939,-8.77642 0.004,-0.32422 -1.11841,-1.10207 -2.49341,-1.72857 -4.69077,-2.13725 -1.87676,-9.41496 2.92756,-7.57138 2.04055,0.78304 2.10729,-4.0124 0.15775,-11.3353 -1.7447,-6.55347 -4.51829,-11.07856 -9.61003,-15.67863 -3.62061,-3.27101 -4.51421,-3.59664 -9.87002,-3.59664 -5.15971,0 -6.38258,0.40247 -9.87481,3.25 C 198.57998,116.81274 195,125.53155 195,136.30559 c 0,9.93476 3.99269,16.69856 12.5,21.17559 4.69268,2.46956 14.18967,2.13915 18.80402,-0.65421 z m 32.97953,-15.69184 c 12.78938,-4.78512 19.75054,-13.90409 20.05515,-26.2718 0.14002,-5.6849 -0.15993,-6.8917 -2.27357,-9.14733 -3.13087,-3.34119 -9.10259,-4.92968 -16.15298,-4.2967 -8.5819,0.77047 -14.15827,4.46558 -19.5444,12.95086 -2.71159,4.27181 -3.33196,8.81498 -0.93167,6.82292 3.35239,-2.78224 7.11338,2.26386 6.392,8.57612 -0.26155,2.28867 -0.88574,2.935 -3.07808,3.18725 -2.46926,0.28412 -2.75,0.70964 -2.75,4.16821 0,2.11849 -0.30062,4.63521 -0.66805,5.59271 -0.60758,1.58333 -0.0418,1.68841 6.25124,1.16082 3.80561,-0.31905 9.52077,-1.55342 12.70036,-2.74306 z M 232.5,142.14003 c 0.33992,-0.55 -0.0835,-1 -0.94098,-1 -0.85746,0 -1.55902,0.45 -1.55902,1 0,0.55 0.42344,1 0.94098,1 0.51754,0 1.2191,-0.45 1.55902,-1 z m 10.5,-19 c 0,-0.55 -0.45,-1 -1,-1 -0.55,0 -1,0.45 -1,1 0,0.55 0.45,1 1,1 0.55,0 1,-0.45 1,-1 z m -40.40499,-14.10641 c 4.72626,-5.22598 14.79797,-7.57631 18.96386,-4.42539 1.06762,0.8075 2.72863,1.4825 3.69113,1.5 1.53019,0.0278 1.75,-1.02242 1.75,-8.361216 0,-9.396765 -0.1688,-9.617609 -7.33179,-9.592208 -4.63017,0.01642 -14.93131,2.236713 -19.01959,4.099455 -2.47715,1.128666 -2.64774,1.633399 -2.63497,7.796279 0.0144,6.9621 0.73945,11.08949 1.94799,11.08949 0.40061,0 1.58563,-0.94788 2.63337,-2.10641 z m 15.81272,-11.995547 c -1.88673,-2.084819 -1.88196,-2.099083 0.5848,-1.75 1.38882,0.196538 2.63432,1.124711 2.82058,2.101952 0.45083,2.365403 -1.09035,2.206119 -3.40538,-0.351952 z M 202.32207,64.115015 c -0.0979,-1.911244 -0.54786,-13.14999 -1,-24.97499 l -0.82207,-21.5 -3.27081,-0.31491 c -9.21344,-0.887063 -30.99313,9.827604 -41.5751,20.45316 -9.48979,9.528877 -12.75549,22.851903 -6.21127,25.340011 6.19059,2.353658 14.15204,-2.57111 31.39652,-19.421157 7.36069,-7.192326 11.84426,-10.967742 11.1123,-9.357174 -1.01135,2.225321 -0.94842,3.287086 0.35798,6.04012 0.87176,1.837104 2.54251,8.272136 3.71276,14.30007 2.68497,13.830179 2.62992,13.675694 4.7246,13.258777 1.31203,-0.261143 1.70826,-1.223087 1.57509,-3.823907 z m 21.22267,-4.72499 c 0.88034,-3.1625 2.26363,-8.225 3.07399,-11.25 0.81036,-3.025 2.63159,-9.215663 4.04718,-13.757029 2.16085,-6.932249 2.41119,-8.897673 1.56027,-12.25 -1.15557,-4.552607 -0.23417,-5.244936 1.83495,-1.378755 1.97462,3.689622 10.51438,11.137294 15.89377,13.861247 13.55004,6.861299 28.50129,7.337029 35.71012,1.136252 2.16364,-1.861084 2.66831,-3.155529 2.66831,-6.843975 0,-5.011253 -1.94226,-10.710222 -3.70465,-10.870183 C 284.00791,17.981238 277.65,17.807362 270.5,17.651191 259.02095,17.400464 256.04368,16.944465 245.05243,13.753634 230.23517,9.4520907 224.62527,9.1031874 222.87462,12.374305 c -0.65767,1.228854 -1.79427,11.016354 -2.52578,21.75 -0.73152,10.733646 -1.78426,21.675369 -2.33944,24.314941 -1.37774,6.550492 -1.34493,6.700779 1.46267,6.700779 2.15722,0 2.67591,-0.732313 4.07267,-5.75 z M 62,383.31814 c 0,-4.76732 7.330607,-13.37515 13.347472,-15.67301 2.743112,-1.0476 6.483601,-1.50558 10.686423,-1.30843 L 92.5,366.64003 86,367.87307 c -9.705235,1.84107 -16.860213,5.85905 -20.75,11.65247 -1.7875,2.66228 -3.25,4.36896 -3.25,3.7926 z M 20.918849,375.9884 c -1.0246,-1.91448 -0.94581,-2.05986 0.71482,-1.31906 4.979,2.22114 10.36633,0.0635 10.36633,-4.15175 0,-2.99946 -2.73072,-3.16382 -6.27287,-0.37756 -2.9816,2.34533 -3.72713,2.48021 -3.72713,0.67431 0,-1.55911 3.71646,-5.09879 6.32244,-6.02171 5.50903,-1.95105 7.91966,6.19621 3.22302,10.89285 -3.24344,3.24344 -8.96559,3.40656 -10.62661,0.30292 z m 29.471853,-6.56145 c 5.718511,-11.44126 14.300978,-17.33948 25.055642,-17.21924 6.524447,0.0729 5.820708,0.79037 -2.768584,2.82244 -6.535543,1.54618 -14.543589,6.8571 -19.215643,12.74377 -5.741146,7.23369 -5.904716,7.32173 -3.071415,1.65303 z M 8.0398688,359.68807 c -3.28005,-3.95222 2.7755102,-8.29055 7.6980302,-5.51502 4.25451,2.39888 3.94507,3.86827 -0.68387,3.2474 -4.4517,-0.5971 -5.4258402,0.75235 -1.80403,2.49909 2.14115,1.03263 2.0987,1.0884 -0.87755,1.15281 -1.72016,0.0372 -3.6698202,-0.5857 -4.3325802,-1.38428 z m 22.1826402,-1.10474 c -1.29252,-0.90532 -2.22251,-2.6066 -2.22251,-4.06575 0,-7.90352 9.64175,-11.81892 16.784457,-6.81597 3.245355,2.27314 3.027672,7.65444 -0.419315,10.36584 -3.218713,2.53184 -10.866182,2.81079 -14.142632,0.51588 z m 13.521897,-3.64614 c 1.879151,-1.55956 1.521594,-3.49744 -0.966912,-5.24046 -3.017039,-2.11321 -7.067225,-1.95775 -9.916705,0.38065 -1.90937,1.5669 -2.15148,2.27961 -1.26615,3.72726 1.9583,3.20212 8.878789,3.84722 12.149767,1.13255 z M 270,89.640025 c -2.52679,-2.689648 -5.44227,-3.093937 -10.94037,-1.517102 -1.88494,0.540595 -3.61129,0.798776 -3.83633,0.573737 -0.8244,-0.824399 5.43165,-3.382345 9.91755,-4.055048 4.17931,-0.626726 4.92402,-0.415432 7.89645,2.240431 1.91649,1.712383 2.98295,3.416194 2.5633,4.0952 -1.1321,1.831782 -3.05474,1.372726 -5.6006,-1.337218 z"
       />
</svg>
