<?xml version="1.0" encoding="UTF-8" standalone="no"?>
<!-- Created with Inkscape (http://www.inkscape.org/) -->

<svg
   version="1.1"
   id="svg1"
   width="388"
   height="388"
   viewBox="0 0 388 388"
   sodipodi:docname="TP-Link Logo.svg"
   inkscape:version="1.4.2 (f4327f4, 2025-05-13)"
   xmlns:inkscape="http://www.inkscape.org/namespaces/inkscape"
   xmlns:sodipodi="http://sodipodi.sourceforge.net/DTD/sodipodi-0.dtd"
   xmlns="http://www.w3.org/2000/svg"
   xmlns:svg="http://www.w3.org/2000/svg">
  <defs
     id="defs1" />
  <sodipodi:namedview
     id="namedview1"
     pagecolor="#ffffff"
     bordercolor="#000000"
     borderopacity="0.25"
     inkscape:showpageshadow="2"
     inkscape:pageopacity="0.0"
     inkscape:pagecheckerboard="0"
     inkscape:deskcolor="#d1d1d1"
     showgrid="false"
     inkscape:zoom="33.625008"
     inkscape:cx="28.50557"
     inkscape:cy="54.200731"
     inkscape:window-width="1920"
     inkscape:window-height="1009"
     inkscape:window-x="-8"
     inkscape:window-y="-8"
     inkscape:window-maximized="1"
     inkscape:current-layer="g1" />
  <g
     inkscape:groupmode="layer"
     inkscape:label="Image"
     id="g1">
    <path
       style="fill:#44739e;stroke-width:0.0782789;fill-opacity:1"
       d="m 23.393429,66.12905 c -0.256695,-0.06418 -0.580751,-0.329484 -0.725775,-0.594191 -0.118532,-0.216352 -0.14091,-0.573008 -0.175071,-2.790319 l -0.03917,-2.542261 -2.545869,-0.03911 c -1.743853,-0.02679 -2.612723,-0.06892 -2.758089,-0.133741 -0.116721,-0.05205 -0.310598,-0.243003 -0.430839,-0.424348 L 16.5,59.275359 v -2.235248 -2.235246 h 5.679246 5.679246 l 0.0201,5.690752 0.0201,5.690752 -2.174292,-0.0091 c -1.19586,-0.005 -2.244793,-0.0267 -2.330961,-0.04824 z m 6.184835,-6.142562 c -0.02081,-0.05415 -0.02852,-1.224569 -0.01713,-2.600928 l 0.02071,-2.502472 1.135849,-0.01353 c 1.509936,-0.01799 1.864378,-0.0698 2.446308,-0.3576 1.387452,-0.686185 2.097089,-1.865858 2.097089,-3.486126 0,-0.391298 -0.03074,-0.79231 -0.06832,-0.891136 -0.03757,-0.09883 -0.113136,-0.320485 -0.167916,-0.492576 -0.129766,-0.407661 -0.557186,-1.073646 -0.879411,-1.370257 -0.140364,-0.129208 -0.519588,-0.365914 -0.842717,-0.526016 -0.583512,-0.289111 -0.59417,-0.291093 -1.566688,-0.291278 -0.673601,-1.56e-4 -1.05252,0.03388 -1.214184,0.108965 -0.129252,0.06003 -0.261601,0.103415 -0.294109,0.0964 -0.03251,-0.007 -0.241829,0.0841 -0.465156,0.202483 -0.490804,0.260158 -1.149732,0.896979 -1.440148,1.391834 -0.404024,0.688437 -0.453512,0.928506 -0.499205,2.421676 l -0.04309,1.40802 -2.532076,0.03912 c -1.392643,0.02151 -2.573535,0.01595 -2.624204,-0.01236 -0.157043,-0.08774 -0.02431,-3.165591 0.169827,-3.937916 0.286175,-1.138491 0.628595,-1.964337 1.151397,-2.776931 0.124559,-0.193603 0.227641,-0.369673 0.229072,-0.391266 0.005,-0.07501 0.546822,-0.668216 1.159829,-1.269742 1.82515,-1.79097 4.20298,-2.668233 6.87205,-2.535337 3.702054,0.184331 6.745716,2.460361 7.842818,5.864812 0.705584,2.189519 0.575566,4.817311 -0.33436,6.75769 -0.67827,1.446385 -1.90232,2.89103 -3.181719,3.75512 -1.048664,0.708253 -2.462185,1.247276 -3.734087,1.423931 -0.878615,0.12203 -3.171934,0.111656 -3.22044,-0.01457 z"
       id="path1" />
  </g>
</svg>
