<?xml version="1.0" encoding="UTF-8" standalone="no"?>
<!-- Created with Inkscape (http://www.inkscape.org/) -->

<svg
   version="1.1"
   id="svg1"
   width="388"
   height="388"
   viewBox="0 0 388 388"
   xmlns="http://www.w3.org/2000/svg"
   xmlns:svg="http://www.w3.org/2000/svg">

  <g
     id="g1">
    <path
       style="fill:#000000"
       d="m 121.92255,343.9401 c -3.27692,-0.82048 -7.41374,-4.2121 -9.26509,-7.59608 -1.51315,-2.76582 -1.79882,-7.32528 -2.23491,-35.67116 l -0.5,-32.5 -32.499997,-0.5 c -22.261652,-0.34249 -33.353455,-0.88109 -35.209156,-1.70972 -1.490035,-0.66535 -3.965035,-3.10652 -5.5,-5.42483 l -2.790844,-4.21511 v -28.57517 -28.57517 h 72.499997 72.5 l 0.25653,72.75 0.25653,72.75 -27.75653,-0.116 c -15.26609,-0.0638 -28.65653,-0.34135 -29.75653,-0.61676 z m 78.95424,-78.52589 c -0.26564,-0.69226 -0.36402,-15.65476 -0.21862,-33.25 l 0.26438,-31.99135 14.5,-0.17296 c 19.27551,-0.22992 23.80024,-0.89228 31.22903,-4.57152 17.71191,-8.77212 26.77097,-23.85295 26.77097,-44.56628 0,-5.00232 -0.39245,-10.12881 -0.87211,-11.39219 -0.47966,-1.26338 -1.44427,-4.09705 -2.14358,-6.29705 -1.65657,-5.21149 -7.11292,-13.72538 -11.22637,-17.51722 -1.79186,-1.65178 -6.63294,-4.67781 -10.75794,-6.72453 -7.44898,-3.69597 -7.58504,-3.72131 -20,-3.72367 -8.59904,-0.002 -13.43623,0.43309 -15.5,1.393 -1.65,0.76746 -3.33954,1.32204 -3.75453,1.23239 -0.41499,-0.0896 -3.08713,1.07519 -5.93808,2.58852 -6.2655,3.32583 -14.67723,11.46689 -18.38461,17.79306 -5.15768,8.80092 -5.78943,11.86993 -6.37274,30.95845 l -0.55004,18 -32.32393,0.5 c -17.77817,0.275 -32.85317,0.20386 -33.5,-0.15808 -2.00478,-1.1218 -0.31031,-40.4686 2.16797,-50.34192 3.65325,-14.55436 8.02451,-25.11188 14.69848,-35.499997 1.59009,-2.475 2.90602,-4.725863 2.92428,-5.001918 0.0634,-0.958953 6.98061,-8.542389 14.80612,-16.232248 23.29947,-22.895574 53.65432,-34.11042 87.72708,-32.411485 47.25961,2.356458 86.11432,31.453011 100.11969,74.975158 9.00733,27.99058 7.34754,61.58401 -4.26837,86.38962 -8.65865,18.49044 -24.2846,36.95863 -40.61713,48.00506 -13.38701,9.05425 -31.4317,15.94506 -47.66852,18.20339 -11.21621,1.56003 -40.49222,1.42741 -41.11143,-0.18623 z"
       id="path1" />
  </g>
</svg>
